<?xml version="1.0" encoding="utf-8"?>
<!-- Generator: Adobe Illustrator 16.0.0, SVG Export Plug-In . SVG Version: 6.00 Build 0)  -->
<!DOCTYPE svg PUBLIC "-//W3C//DTD SVG 1.1//EN" "http://www.w3.org/Graphics/SVG/1.1/DTD/svg11.dtd">
<svg version="1.1" id="Layer_1" xmlns="http://www.w3.org/2000/svg" xmlns:xlink="http://www.w3.org/1999/xlink" x="0px" y="0px"
	 width="60.048px" height="40px" viewBox="-10.07 20 60.048 40" enable-background="new -10.07 20 60.048 40" xml:space="preserve">
<g>
	<g>
		<circle fill="#FFFFFF" cx="29.977" cy="40" r="19.703"/>
		<g>
			<path fill="#262626" d="M24.362,31.208c0,0.618,0,1.238,0,1.885c0.113,0,0.198,0.001,0.283,0c0.376-0.005,0.524-0.131,0.55-0.509
				c0.019-0.279,0.029-0.56,0.009-0.838C25.167,31.209,24.888,31.039,24.362,31.208z"/>
			<path fill="#262626" d="M21.988,43.844c-0.513-0.039-1.032-0.01-1.561-0.01c0,0.461,0,0.924,0,1.41
				c0.505,0,0.987,0.01,1.467-0.004c0.358-0.01,0.599-0.268,0.624-0.628C22.548,44.188,22.366,43.875,21.988,43.844z"/>
			<path fill="#262626" d="M27.132,36.499c0.002-0.125,0.004-0.25,0-0.374c-0.014-0.345-0.161-0.446-0.506-0.342
				c0,0.361,0,0.725,0,1.083C27.006,36.939,27.121,36.853,27.132,36.499z"/>
			<path fill="#262626" d="M21.837,41.939c0.382-0.027,0.582-0.295,0.575-0.664c-0.009-0.354-0.216-0.615-0.583-0.64
				c-0.463-0.028-0.928-0.007-1.403-0.007c0,0.442,0,0.867,0,1.319C20.907,41.948,21.373,41.973,21.837,41.939z"/>
			<path fill="#262626" d="M37.979,32.618c0,0.038,0.006,0.077,0.011,0.115c0.043,0.239,0.207,0.391,0.422,0.393
				c0.205,0.001,0.401-0.138,0.415-0.365c0.025-0.424,0.029-0.852,0.002-1.277c-0.018-0.258-0.184-0.364-0.431-0.357
				c-0.231,0.006-0.379,0.14-0.407,0.395c-0.021,0.191-0.021,0.388-0.032,0.582c0.009,0,0.015,0,0.021,0
				C37.979,32.275,37.979,32.446,37.979,32.618z"/>
			<path fill="#262626" d="M15.332,31.167c-0.167-0.012-0.335-0.003-0.513-0.003c0,0.233,0,0.44,0,0.676
				c0.188,0,0.358,0.014,0.526-0.004c0.195-0.022,0.306-0.15,0.295-0.351C15.631,31.299,15.52,31.181,15.332,31.167z"/>
			<path fill="#262626" d="M29.977,20c-11.045,0-20,8.954-20,20c0,11.046,8.955,20,20,20c11.047,0,20.001-8.955,20.001-20
				C49.977,28.954,41.023,20,29.977,20z M37.138,31.347c0.105-0.647,0.633-1.028,1.364-1.005c0.651,0.021,1.168,0.471,1.21,1.099
				c0.03,0.457,0.032,0.918-0.002,1.375c-0.05,0.634-0.549,1.052-1.223,1.082c-0.709,0.029-1.235-0.35-1.348-0.993
				c-0.043-0.258-0.042-0.526-0.062-0.79C37.096,31.857,37.097,31.598,37.138,31.347z M34.007,30.382
				c0.256,0,0.507-0.01,0.752,0.008c0.06,0.005,0.144,0.098,0.167,0.168c0.173,0.547,0.334,1.099,0.52,1.717
				c0.078-0.247,0.139-0.433,0.195-0.62c0.112-0.372,0.226-0.743,0.328-1.118c0.032-0.122,0.088-0.162,0.209-0.158
				c0.239,0.01,0.478,0.003,0.748,0.003c-0.117,0.352-0.229,0.675-0.333,0.997c-0.251,0.761-0.51,1.518-0.751,2.28
				c-0.051,0.158-0.119,0.239-0.291,0.214c-0.093-0.014-0.192,0.013-0.279-0.009c-0.07-0.017-0.164-0.069-0.182-0.126
				c-0.367-1.09-0.724-2.184-1.084-3.277C34.001,30.449,34.007,30.432,34.007,30.382z M32.159,32.051c0.522,0,1.041,0,1.58,0
				c0,0.247,0,0.49,0,0.746c-0.526,0-1.045,0-1.58,0C32.159,32.551,32.159,32.309,32.159,32.051z M33.797,37.358
				c-0.162,0-0.288,0.012-0.409-0.006c-0.061-0.009-0.151-0.064-0.163-0.113c-0.038-0.156-0.128-0.192-0.27-0.178
				c-0.1,0.01-0.201-0.004-0.303,0.004c-0.049,0.004-0.13,0.026-0.135,0.052c-0.09,0.392-0.381,0.193-0.635,0.251
				c0.197-0.548,0.379-1.048,0.562-1.552c0.036-0.102,0.08-0.201,0.11-0.306c0.043-0.142,0.088-0.239,0.28-0.239
				c0.199-0.002,0.244,0.101,0.295,0.25C33.344,36.121,33.561,36.716,33.797,37.358z M31.271,28.188
				c-0.072-0.035-0.165-0.031-0.249-0.045c-0.323-0.057-0.491-0.22-0.52-0.507c-0.033-0.338,0.112-0.602,0.414-0.699
				c0.367-0.119,0.715-0.085,1.035,0.183c-0.112,0.101-0.214,0.19-0.303,0.27c-0.169-0.018-0.327-0.05-0.483-0.041
				c-0.061,0.003-0.115,0.1-0.174,0.155c0.055,0.055,0.1,0.136,0.167,0.161c0.099,0.038,0.212,0.036,0.32,0.054
				c0.25,0.045,0.43,0.162,0.492,0.427c0.066,0.277,0.007,0.509-0.218,0.689c-0.337,0.271-1.021,0.217-1.341-0.112
				c0.092-0.1,0.187-0.202,0.25-0.27c0.228,0.031,0.422,0.077,0.617,0.077c0.069-0.001,0.135-0.114,0.204-0.176
				C31.414,28.298,31.351,28.225,31.271,28.188z M29.269,36.071c0,0.167,0,0.308,0,0.47c-0.248,0-0.485,0-0.742,0
				c0,0.117,0,0.213,0,0.34c0.277,0,0.559,0,0.865,0c0,0.171,0,0.312,0,0.465c-0.463,0-0.919,0-1.388,0c0-0.684,0-1.356,0-2.048
				c0.463,0,0.923,0,1.397,0c0,0.138,0,0.268,0,0.435c-0.29,0-0.578,0-0.887,0c0,0.141,0,0.227,0,0.337
				C28.761,36.071,29.006,36.071,29.269,36.071z M29.395,33.623c-0.012-0.294,0.06-0.539,0.229-0.782
				c0.329-0.472,0.63-0.962,0.944-1.446c0.041-0.063,0.077-0.129,0.137-0.232c-0.428,0-0.821,0-1.223,0c0-0.269,0-0.507,0-0.764
				c0.749,0,1.499,0,2.283,0c-0.013,0.307,0.065,0.614-0.15,0.919c-0.398,0.563-0.762,1.152-1.156,1.762c0.447,0,0.862,0,1.293,0
				c0,0.265,0,0.508,0,0.776c-0.06,0.004-0.128,0.013-0.193,0.014c-0.638,0-1.277-0.008-1.915,0.004
				C29.443,33.879,29.405,33.809,29.395,33.623z M30.411,37.139c0-0.606,0-1.212,0-1.84c0.171,0,0.329,0,0.514,0
				c0,0.521,0,1.046,0,1.598c0.303,0,0.58,0,0.871,0c0,0.157,0,0.287,0,0.439c-0.448,0-0.901,0-1.386,0
				C30.411,37.261,30.411,37.2,30.411,37.139z M28.83,26.913c0.46,0,0.915,0,1.391,0c0,0.153,0,0.283,0,0.441
				c-0.29,0-0.574,0-0.872,0c0,0.125,0,0.223,0,0.346c0.238,0,0.475,0,0.729,0c0,0.16,0,0.294,0,0.458c-0.233,0-0.469,0-0.726,0
				c0,0.13,0,0.233,0,0.355c0.281,0,0.56,0,0.856,0c0,0.16,0,0.302,0,0.458c-0.454,0-0.908,0-1.38,0
				C28.83,28.288,28.83,27.609,28.83,26.913z M27.15,26.915c0.158,0,0.317,0,0.495,0c0,0.531,0,1.049,0,1.597
				c0.293,0,0.57,0,0.864,0c0,0.164,0,0.3,0,0.454c-0.447,0-0.893,0-1.359,0C27.15,28.292,27.15,27.612,27.15,26.915z
				 M26.651,30.472c0-0.021,0.01-0.043,0.022-0.08c0.784,0,1.552,0,2.335,0c0,0.253,0,0.497,0,0.762c-0.492,0-0.972,0-1.472,0
				c0,0.195,0,0.369,0,0.572c0.414,0,0.829,0,1.256,0c0,0.267,0,0.504,0,0.764c-0.42,0-0.828,0-1.256,0c0,0.204,0,0.386,0,0.592
				c0.479,0,0.965,0,1.468,0c0,0.269,0,0.511,0,0.789c-0.216,0-0.432,0-0.649,0c-0.505,0-1.01-0.001-1.516,0.001
				c-0.11,0.001-0.196-0.005-0.194-0.156C26.649,32.635,26.649,31.553,26.651,30.472z M26.101,35.289
				c0.317,0,0.622-0.017,0.923,0.005c0.317,0.023,0.568,0.264,0.598,0.586c0.027,0.292,0.026,0.589,0,0.882
				c-0.031,0.313-0.27,0.554-0.578,0.579c-0.308,0.026-0.617,0.006-0.943,0.006C26.101,36.658,26.101,35.979,26.101,35.289z
				 M20.093,30.383c0.219,0,0.435-0.011,0.648,0.007c0.067,0.005,0.146,0.077,0.187,0.14c0.282,0.43,0.556,0.863,0.833,1.294
				c0.036,0.058,0.075,0.113,0.161,0.162c0-0.529,0-1.056,0-1.593c0.304,0,0.575,0,0.861,0c0,1.152,0,2.3,0,3.476
				c-0.222,0-0.447,0.011-0.668-0.006c-0.058-0.005-0.125-0.082-0.164-0.142c-0.292-0.448-0.578-0.902-0.868-1.354
				c-0.031-0.049-0.067-0.098-0.101-0.147c-0.016,0.006-0.033,0.011-0.05,0.016c0,0.535,0,1.07,0,1.621c-0.284,0-0.551,0-0.838,0
				C20.093,32.701,20.093,31.556,20.093,30.383z M15.786,33.862c-0.054-0.003-0.122-0.082-0.153-0.143
				c-0.158-0.311-0.32-0.622-0.454-0.944c-0.07-0.171-0.167-0.227-0.363-0.175c0,0.406,0,0.821,0,1.268
				c-0.27,0-0.516,0.007-0.762-0.006c-0.042-0.001-0.115-0.084-0.115-0.129c-0.003-1.097,0-2.193,0.004-3.291
				c0-0.014,0.013-0.029,0.027-0.052c0.521,0,1.05-0.032,1.575,0.01c0.474,0.037,0.808,0.323,0.929,0.794
				c0.131,0.517-0.034,0.934-0.51,1.228c0.242,0.472,0.482,0.938,0.742,1.444C16.371,33.867,16.077,33.876,15.786,33.862z
				 M17.125,30.394c0.788,0,1.561,0,2.35,0c0,0.251,0,0.495,0,0.76c-0.492,0-0.973,0-1.47,0c0,0.195,0,0.369,0,0.572
				c0.41,0,0.826,0,1.256,0c0,0.267,0,0.504,0,0.764c-0.42,0-0.829,0-1.257,0c0,0.205,0,0.387,0,0.592c0.479,0,0.964,0,1.467,0
				c0,0.269,0,0.512,0,0.772c-0.774,0-1.548,0-2.346,0C17.125,32.688,17.125,31.548,17.125,30.394z M22.801,47.009
				c-0.269,0.063-0.554,0.094-0.832,0.096c-1.113,0.011-2.226,0.006-3.34,0.006c-0.083,0-0.167,0-0.261,0c0-2.789,0-5.55,0-8.343
				c0.231,0,0.44-0.001,0.649,0c1.073,0.009,2.149-0.011,3.221,0.036c0.779,0.034,1.457,0.346,1.885,1.043
				c0.474,0.771,0.621,2.103-0.454,2.919c-0.025,0.019-0.051,0.035-0.094,0.066c0.377,0.239,0.673,0.517,0.844,0.908
				C25.01,45.092,24.232,46.674,22.801,47.009z M23.617,33.867c-0.038,0-0.074-0.013-0.121-0.023c0-1.147,0-2.29,0-3.46
				c0.508,0,0.989-0.021,1.469,0.006c0.629,0.034,1.082,0.517,1.101,1.146c0.01,0.396,0.013,0.793,0,1.19
				c-0.021,0.609-0.466,1.078-1.073,1.117C24.536,33.875,24.076,33.863,23.617,33.867z M27.089,57.284c-0.59,0-1.155,0-1.738,0
				c-0.004-0.096-0.011-0.179-0.011-0.265c-0.001-2.427,0-4.854-0.007-7.28c0-0.21,0.05-0.282,0.27-0.275
				c0.49,0.017,0.978,0.006,1.487,0.006C27.089,52.083,27.089,54.676,27.089,57.284z M29.088,57.278c-0.576,0-1.149,0-1.749,0
				c0-2.596,0-5.185,0-7.791c0.579,0,1.157,0,1.749,0C29.088,52.085,29.088,54.672,29.088,57.278z M27.048,46.664
				c-0.855-0.578-1.266-1.407-1.292-2.412c-0.028-0.963-0.04-1.931,0.036-2.89c0.119-1.496,1.261-2.557,2.775-2.651
				c0.954-0.06,1.849,0.108,2.585,0.778c0.573,0.521,0.858,1.188,0.987,1.981c-0.676,0-1.328,0.003-1.982-0.009
				c-0.046,0-0.11-0.089-0.135-0.149c-0.24-0.613-0.7-0.87-1.348-0.748c-0.461,0.087-0.749,0.379-0.812,0.898
				c-0.122,0.984-0.127,1.975,0.002,2.958c0.09,0.684,0.591,1.015,1.274,0.9c0.66-0.112,1.03-0.614,0.93-1.288
				c-0.384,0-0.771,0-1.177,0c0-0.58,0-1.143,0-1.721c1.076,0,2.154,0,3.257,0c-0.023,0.93,0.083,1.857-0.169,2.766
				c-0.329,1.17-1.398,2.006-2.649,2.085C28.519,47.213,27.743,47.137,27.048,46.664z M32.562,57.336
				c-0.488-2.513-0.972-5.013-1.458-7.511c-0.011,0-0.023,0.001-0.034,0.001c0,2.481,0,4.964,0,7.458c-0.591,0-1.157,0-1.741,0
				c0-2.595,0-5.184,0-7.816c0.12,0,0.24,0,0.359,0c0.398,0,0.795-0.005,1.193,0.004c0.077,0.002,0.152,0.062,0.229,0.094
				c-0.005,0.028-0.01,0.056-0.015,0.085c0.562-0.108,1.125-0.215,1.716-0.327c0.496,2.565,0.99,5.108,1.488,7.677
				C33.72,57.112,33.158,57.221,32.562,57.336z M41.298,47.092c-0.672,0-1.345,0-2.047,0c0-1.278,0-2.548,0-3.82
				c-0.015-0.004-0.031-0.008-0.047-0.012c-0.077,0.13-0.156,0.258-0.232,0.389c-0.261,0.451-0.523,0.901-0.776,1.356
				c-0.067,0.124-0.141,0.184-0.288,0.179c-0.319-0.01-0.639-0.01-0.958,0c-0.137,0.004-0.211-0.048-0.274-0.162
				c-0.298-0.529-0.602-1.054-0.904-1.58c-0.04-0.072-0.088-0.14-0.17-0.27c0,1.348,0,2.627,0,3.923c-0.692,0-1.365,0-2.048,0
				c0-2.771,0-5.533,0-8.326c0.649,0,1.281-0.006,1.907,0.009c0.071,0.001,0.16,0.107,0.201,0.187
				c0.546,1.057,1.083,2.117,1.624,3.178c0.041,0.082,0.083,0.161,0.144,0.279c0.319-0.622,0.618-1.207,0.917-1.792
				c0.287-0.561,0.576-1.121,0.855-1.685c0.062-0.129,0.138-0.182,0.285-0.179c0.596,0.008,1.195,0.003,1.806,0.003
				C41.298,41.552,41.298,44.312,41.298,47.092z M42.902,30.692c0,0.646,0.002,1.291-0.002,1.938c0,0.743-0.519,1.25-1.287,1.268
				c-0.763,0.018-1.326-0.477-1.344-1.213c-0.017-0.73-0.003-1.462-0.003-2.193c0-0.03,0.01-0.059,0.017-0.099
				c0.276,0,0.544,0,0.844,0c0,0.099,0,0.189,0,0.279c0,0.638-0.006,1.276,0.002,1.915c0.005,0.412,0.27,0.626,0.612,0.509
				c0.235-0.082,0.297-0.274,0.297-0.5c0.001-0.646,0.001-1.291,0.001-1.938c0-0.084,0-0.168,0-0.264c0.293,0,0.561,0,0.865,0
				C42.902,30.498,42.902,30.594,42.902,30.692z M45.44,33.643c-0.596,0.43-1.771,0.315-2.22-0.215
				c0.176-0.172,0.352-0.346,0.54-0.531c0.287,0.195,0.611,0.269,0.964,0.207c0.171-0.029,0.291-0.107,0.286-0.304
				c-0.004-0.19-0.13-0.247-0.29-0.27c-0.162-0.021-0.323-0.042-0.484-0.073c-0.584-0.114-0.839-0.399-0.87-0.957
				c-0.027-0.5,0.258-0.922,0.762-1.074c0.548-0.164,1.077-0.115,1.559,0.216c0.047,0.03,0.09,0.061,0.144,0.097
				c-0.21,0.196-0.389,0.363-0.524,0.489c-0.269-0.041-0.512-0.095-0.761-0.108c-0.177-0.009-0.327,0.097-0.332,0.291
				c-0.006,0.197,0.163,0.244,0.323,0.272c0.184,0.033,0.369,0.049,0.551,0.085c0.39,0.079,0.67,0.282,0.757,0.695
				C45.938,32.935,45.853,33.347,45.44,33.643z"/>
			<path fill="#262626" d="M32.685,36.603c0.052-0.162,0.095-0.303,0.139-0.446c0.017-0.002,0.033-0.002,0.05-0.004
				c0.043,0.143,0.088,0.287,0.136,0.449C32.893,36.603,32.806,36.603,32.685,36.603z"/>
		</g>
	</g>
	<rect x="-10.07" y="25.417" fill="#262626" width="2.964" height="14.289"/>
	<rect x="-6.404" y="25.417" fill="#262626" width="2.964" height="14.289"/>
	<rect x="-2.737" y="25.417" fill="#262626" width="2.964" height="14.289"/>
	
		<rect x="2.43" y="25.417" transform="matrix(-0.9848 0.1739 -0.1739 -0.9848 13.4278 63.9454)" fill="#262626" width="2.965" height="14.289"/>
</g>
</svg>
