<?xml version="1.0" encoding="utf-8"?>
<!-- Generator: Adobe Illustrator 16.0.0, SVG Export Plug-In . SVG Version: 6.00 Build 0)  -->
<!DOCTYPE svg PUBLIC "-//W3C//DTD SVG 1.1//EN" "http://www.w3.org/Graphics/SVG/1.1/DTD/svg11.dtd">
<svg version="1.1" id="Layer_1" xmlns="http://www.w3.org/2000/svg" xmlns:xlink="http://www.w3.org/1999/xlink" x="0px" y="0px"
	 width="25.984px" height="60px" viewBox="0 0 25.984 60" enable-background="new 0 0 25.984 60" xml:space="preserve">
<g>
	<rect x="0" fill="#FFFFFF" width="25.985" height="60"/>
	<g>
		<path fill="none" d="M24.813,48.607c0,3.358,0,6.721,0,10.086c-4.396,0-8.789,0-13.184,0c-0.004-0.487-0.008-0.979-0.014-1.481
			c-0.796,0-1.576,0-2.361,0c0-0.405,0-0.793,0-1.185c0.003-0.203-0.019-0.398-0.073-0.597c-0.199-0.692-0.65-1.139-1.362-1.272
			c-0.716-0.133-1.311,0.107-1.738,0.705c-0.25,0.352-0.34,0.759-0.343,1.185c-0.002,0.884,0,1.765,0,2.646
			c-1.433,0-2.869,0-4.302,0c0-13.77,0-27.541,0-41.312c0.178,0.079,0.358,0.155,0.539,0.233c0.043-0.147-0.007-0.237-0.121-0.311
			c-0.115-0.07-0.213-0.158-0.318-0.234c-0.027-0.019-0.052-0.07-0.1-0.03c0-5.344,0-10.689,0-16.042c4.613,0,9.226,0,13.842,0
			c0,0.062,0.004,0.125,0.004,0.188c0,1.775,0,3.558,0.002,5.334c0,0.062-0.018,0.125,0.016,0.181c0.355,0,0.711,0,1.074,0
			c0-0.71,0-1.409,0-2.124c1.604,0,3.193,0,4.777,0c0-0.5,0-0.977,0-1.472c-1.598,0-3.184,0-4.775,0c0-0.714,0-1.414,0-2.111
			c2.814,0,5.627,0,8.436,0c0,15.835,0,31.673,0,47.509c-0.33,0-0.658,0-0.99,0c-0.008,0.094-0.018,0.162,0.01,0.239
			c0.213,0,0.426,0,0.652,0c-0.191,0.434-0.379,0.851-0.562,1.268c0.066,0.035,0.123,0.075,0.188,0.08
			c0.055-0.038,0.061-0.092,0.082-0.139c0.105-0.233,0.205-0.469,0.316-0.703C24.61,49.037,24.682,48.808,24.813,48.607z
			 M21.239,11.292c0-0.999-0.135-1.591-0.455-2.133c-0.506-0.867-1.25-1.407-2.25-1.511c-1.107-0.115-2.002,0.325-2.674,1.205
			c-0.383,0.505-0.572,1.086-0.629,1.717c-0.07,0.769,0.025,1.512,0.402,2.192c0.508,0.925,1.297,1.478,2.352,1.574
			c0.998,0.091,1.83-0.284,2.477-1.045C21.022,12.636,21.233,11.851,21.239,11.292z M21.16,34.832
			c0.002-0.038,0.004-0.062,0.004-0.082c0-0.826,0.012-1.651-0.002-2.479c-0.006-0.492-0.072-0.979-0.236-1.451
			c-0.258-0.724-0.709-1.279-1.428-1.586c-0.549-0.236-1.127-0.293-1.717-0.211c-0.785,0.107-1.432,0.461-1.896,1.113
			c-0.43,0.6-0.586,1.287-0.598,2.01c-0.014,0.848-0.002,1.697-0.002,2.547c0,0.043-0.014,0.088,0.018,0.139
			C17.25,34.832,19.198,34.832,21.16,34.832z M15.303,46.34c1.949,0,3.9,0,5.854,0c0.002-0.027,0.008-0.044,0.008-0.062
			c0-0.836,0.012-1.676-0.006-2.513c-0.006-0.573-0.096-1.137-0.334-1.671c-0.312-0.695-0.812-1.184-1.541-1.426
			c-0.5-0.168-1.018-0.199-1.541-0.123c-0.924,0.139-1.617,0.609-2.061,1.436c-0.287,0.531-0.391,1.108-0.396,1.703
			c-0.008,0.826-0.002,1.653,0,2.477C15.285,46.225,15.272,46.281,15.303,46.34z M18.412,17.115
			c-0.049-0.082-0.082-0.142-0.119-0.207c-0.572-1.002-1.779-0.927-2.393-0.361c-0.432,0.399-0.607,0.906-0.613,1.477
			c-0.01,0.842-0.004,1.686-0.002,2.527c0,0.043-0.02,0.09,0.02,0.128c1.951,0,3.898,0,5.85,0c0-0.489,0-0.973,0-1.47
			c-0.795,0-1.576,0-2.371,0c0-0.132,0.004-0.255-0.002-0.374c-0.014-0.26,0.1-0.464,0.289-0.631
			c0.102-0.094,0.217-0.168,0.336-0.237c0.248-0.145,0.512-0.258,0.775-0.371c0.324-0.146,0.658-0.283,0.973-0.447
			c0.023-0.309,0.018-1.467-0.014-1.596c-0.039-0.006-0.066,0.02-0.096,0.034c-0.488,0.223-0.979,0.441-1.467,0.672
			C19.147,16.466,18.696,16.661,18.412,17.115z M8.872,41.869c-0.066-0.117-0.119-0.213-0.18-0.305
			c-0.187-0.275-0.424-0.492-0.748-0.601c-0.678-0.231-1.434,0.022-1.851,0.626c-0.241,0.355-0.351,0.757-0.351,1.184
			c-0.004,0.832-0.002,1.662-0.002,2.496c0,0.051-0.012,0.1,0.02,0.152c1.949,0,3.899,0,5.854,0c0-0.492,0-0.971,0-1.467
			c-0.8,0-1.585,0-2.382,0c0-0.152,0-0.281,0.001-0.414c0.008-0.209,0.088-0.389,0.235-0.538c0.153-0.149,0.333-0.263,0.522-0.358
			c0.366-0.189,0.748-0.341,1.127-0.513c0.168-0.078,0.348-0.146,0.494-0.238c0-0.538,0-1.061,0-1.588
			c-0.027,0.004-0.046,0-0.06,0.007c-0.653,0.319-1.33,0.586-1.974,0.926C9.299,41.387,9.044,41.568,8.872,41.869z M11.614,47.052
			c-1.964,0.874-3.917,1.738-5.862,2.604c0,0.574,0,1.144,0,1.711c1.953,0.787,3.9,1.572,5.859,2.363c0-0.537,0-1.043,0-1.557
			c-0.388-0.148-0.77-0.295-1.145-0.436c0-0.888,0-1.756,0-2.623c0.39-0.164,0.77-0.322,1.147-0.483
			C11.614,48.111,11.614,47.596,11.614,47.052z M15.293,27.252c1.959,0,3.912,0,5.861,0c0-1.447,0-2.883,0-4.324
			c-0.357,0-0.707,0-1.068,0c0,0.95,0,1.895,0,2.85c-0.473,0-0.934,0-1.41,0c0-0.891,0-1.771,0-2.647c-0.371,0-0.725,0-1.094,0
			c0,0.892,0,1.771,0,2.649c-0.408,0-0.803,0-1.215,0c0-0.934,0-1.86,0-2.785c-0.371,0-0.719,0-1.074,0
			C15.293,24.419,15.293,25.832,15.293,27.252z M6.122,30.906c-0.348,0.757-0.518,1.543-0.44,2.371
			c0.035,0.356,0.127,0.697,0.295,1.017c0.563,1.069,1.865,0.996,2.457,0.468c0.259-0.23,0.438-0.512,0.583-0.82
			c0.16-0.344,0.272-0.703,0.407-1.055c0.077-0.197,0.156-0.393,0.296-0.559c0.235-0.277,0.606-0.236,0.776,0.087
			c0.058,0.108,0.088,0.225,0.103,0.344c0.061,0.55-0.07,1.058-0.322,1.54c-0.122,0.234-0.269,0.46-0.412,0.704
			c0.431,0,0.846,0,1.262,0c0.312-0.543,0.518-1.115,0.559-1.737c0.034-0.517,0.006-1.029-0.191-1.518
			c-0.248-0.614-0.68-1.018-1.354-1.1c-0.655-0.082-1.192,0.141-1.586,0.68c-0.17,0.232-0.294,0.488-0.405,0.755
			c-0.146,0.342-0.253,0.7-0.406,1.039c-0.062,0.135-0.128,0.267-0.235,0.372c-0.19,0.188-0.438,0.168-0.595-0.051
			c-0.043-0.065-0.081-0.137-0.102-0.216c-0.061-0.21-0.08-0.425-0.061-0.645c0.032-0.323,0.115-0.63,0.221-0.933
			c0.088-0.246,0.199-0.484,0.297-0.74C6.879,30.906,6.507,30.906,6.122,30.906z M15.295,38.589c1.957,0,3.91,0,5.865,0
			c0-0.486,0-0.961,0-1.438c-1.963,0-3.912,0-5.865,0C15.295,37.634,15.295,38.109,15.295,38.589z M5.747,38.591
			c1.961,0,3.911,0,5.863,0c0-0.487,0-0.968,0-1.44c-1.958,0-3.909,0-5.863,0C5.747,37.631,5.747,38.103,5.747,38.591z
			 M13.454,38.673c0.38,0.017,0.812-0.289,0.818-0.815c0-0.453-0.375-0.822-0.82-0.82c-0.453,0.004-0.821,0.377-0.819,0.822
			C12.636,38.316,13,38.676,13.454,38.673z M3.09,16.649c-0.249-0.012-0.477,0.028-0.677,0.171
			c-0.094,0.068-0.161,0.162-0.204,0.272c-0.164,0.434,0.062,0.888,0.508,1.021c0.217,0.064,0.432,0.057,0.641-0.01
			c0.352-0.118,0.559-0.41,0.557-0.781c0-0.123-0.02-0.238-0.056-0.357c-0.09-0.287-0.134-0.317-0.438-0.291
			c-0.005,0-0.008,0.007-0.021,0.016c0.023,0.047,0.05,0.099,0.075,0.146c0.067,0.124,0.097,0.255,0.109,0.394
			c0.023,0.324-0.189,0.57-0.499,0.562c0-0.186,0-0.375,0-0.564C3.09,17.036,3.09,16.849,3.09,16.649z M3.087,25.269
			c-0.243-0.01-0.465,0.031-0.658,0.167c-0.119,0.079-0.193,0.192-0.232,0.331c-0.131,0.459,0.121,0.884,0.59,0.987
			c0.539,0.121,1.02-0.155,1.113-0.639c0.033-0.164,0.014-0.322-0.025-0.479c-0.07-0.3-0.132-0.345-0.439-0.337
			c-0.01,0-0.02,0.014-0.031,0.021c0.054,0.104,0.117,0.207,0.149,0.324c0.117,0.404-0.05,0.756-0.466,0.782
			C3.087,26.043,3.087,25.663,3.087,25.269z M3.876,32.904c-0.352-0.024-1.54-0.018-1.675,0.014c0,0.099,0,0.201,0,0.302
			c0.063,0.029,0.121,0.017,0.176,0.017c0.3,0,0.599,0,0.896,0c0.051,0,0.104-0.006,0.152,0.021c0.137,0.08,0.232,0.305,0.195,0.462
			c-0.042,0.171-0.144,0.25-0.355,0.253c-0.264,0.008-0.527,0.003-0.789,0.003c-0.09,0-0.181,0-0.27,0c0,0.124,0,0.228,0,0.343
			c0.304,0,0.593-0.002,0.887,0.002c0.114,0,0.229-0.006,0.343-0.025c0.41-0.076,0.601-0.473,0.404-0.838
			c-0.037-0.069-0.083-0.131-0.127-0.196c0.056-0.042,0.113-0.003,0.164-0.042C3.876,33.115,3.876,33.016,3.876,32.904z
			 M3.876,31.732c-0.34,0-0.671,0.004-1.003,0c-0.212,0-0.348-0.098-0.414-0.305c-0.059-0.174,0.014-0.337,0.185-0.404
			c0.079-0.031,0.164-0.041,0.253-0.037c0.325,0,0.651,0,0.974,0c0-0.123,0-0.229,0-0.346c-0.344,0-0.674,0-1.004,0.004
			c-0.059,0-0.118,0.012-0.174,0.018c-0.491,0.043-0.688,0.57-0.381,0.963c0.025,0.033,0.079,0.049,0.067,0.107
			c-0.06,0.002-0.114,0.002-0.176,0.008c0,0.108,0,0.209,0,0.316c0.565,0,1.117,0,1.674,0C3.876,31.947,3.876,31.847,3.876,31.732z
			 M3.753,22.762c0.064-0.074,0.095-0.166,0.118-0.252c0.06-0.225,0.079-0.447-0.048-0.664C3.7,21.631,3.32,21.53,3.12,21.774
			c-0.074,0.088-0.142,0.184-0.201,0.278c-0.062,0.097-0.125,0.193-0.19,0.285c-0.038,0.046-0.082,0.084-0.149,0.066
			c-0.068-0.023-0.094-0.076-0.104-0.144c-0.021-0.104,0.004-0.206,0.042-0.302c0.027-0.078,0.067-0.153,0.106-0.237
			c-0.117,0-0.217,0-0.321,0c-0.11,0.22-0.17,0.439-0.105,0.682c0.042,0.168,0.13,0.293,0.302,0.337c0.176,0.046,0.326,0,0.45-0.135
			c0.086-0.097,0.148-0.202,0.213-0.311c0.052-0.088,0.091-0.183,0.167-0.258c0.091-0.086,0.189-0.073,0.252,0.036
			c0.042,0.071,0.042,0.145,0.03,0.218c-0.016,0.11-0.059,0.21-0.11,0.306c-0.024,0.053-0.071,0.1-0.075,0.167
			C3.538,22.762,3.647,22.762,3.753,22.762z M2.203,28.855c0.562-0.248,1.109-0.488,1.654-0.734
			c0.087-0.037,0.085-0.119,0.003-0.166c-0.019-0.012-0.04-0.02-0.062-0.028c-0.485-0.208-0.974-0.42-1.462-0.628
			c-0.043-0.02-0.08-0.048-0.132-0.034c-0.01,0.112-0.013,0.226,0,0.341c0.333,0.141,0.661,0.285,1.015,0.435
			c-0.355,0.159-0.688,0.305-1.015,0.45C2.203,28.615,2.203,28.727,2.203,28.855z M3.497,18.691
			c0.028,0.065,0.057,0.115,0.075,0.168c0.021,0.059,0.038,0.12,0.035,0.183c-0.004,0.141-0.072,0.241-0.206,0.248
			c-0.296,0.006-0.591,0-0.891,0c-0.018-0.185,0.014-0.355-0.02-0.517c-0.104,0-0.189,0-0.283,0
			c-0.032,0.176,0.011,0.347-0.024,0.511c-0.101,0.026-0.206-0.014-0.314,0.038c0.221,0.201,0.394,0.428,0.625,0.619
			c0.029-0.111-0.008-0.211,0.032-0.308c0.062,0,0.126,0,0.187,0c0.255,0,0.507,0.005,0.759-0.009
			c0.233-0.017,0.375-0.15,0.428-0.376c0.049-0.199-0.007-0.379-0.092-0.557C3.699,18.691,3.603,18.691,3.497,18.691z M18.75,48.511
			c0,0.531,0,1.052,0,1.574c0.072,0.005,0.145,0.012,0.219-0.007c0-0.227,0-0.441,0-0.656c0.146-0.044,0.242,0.016,0.326,0.105
			c0.113,0.119,0.189,0.26,0.275,0.394c0.127,0.196,0.129,0.196,0.375,0.14c-0.199-0.227-0.293-0.521-0.533-0.713
			c0.02-0.015,0.031-0.029,0.045-0.035c0.174-0.109,0.227-0.274,0.186-0.462c-0.039-0.188-0.174-0.288-0.361-0.321
			C19.106,48.496,18.932,48.52,18.75,48.511z M3.876,24.173c-0.306,0-0.598,0-0.891,0c-0.135,0-0.261-0.035-0.364-0.126
			c-0.114-0.104-0.189-0.248-0.069-0.445c0.026-0.046,0.08-0.078,0.085-0.148c-0.096-0.051-0.178-0.121-0.278-0.154
			c-0.122,0.109-0.199,0.236-0.195,0.391c0.008,0.235,0.205,0.338,0.386,0.487c-0.138,0-0.239,0-0.348,0c0,0.119,0,0.224,0,0.33
			c0.562,0,1.113,0,1.675,0C3.876,24.395,3.876,24.292,3.876,24.173z M17.008,49.623c0.199,0,0.387,0,0.572,0
			c0.061-0.002,0.094,0.019,0.119,0.076c0.055,0.129,0.119,0.256,0.178,0.386c0.076,0,0.148,0.017,0.23-0.015
			c-0.234-0.527-0.467-1.047-0.693-1.562c-0.066-0.01-0.121-0.015-0.176,0.007c-0.221,0.516-0.438,1.031-0.666,1.559
			c0.088,0.02,0.16,0.018,0.238,0.004C16.873,49.93,16.938,49.785,17.008,49.623z M15.522,50.082c0-0.227,0-0.445,0-0.68
			c0.092,0,0.172-0.002,0.248,0c0.082,0.004,0.162-0.008,0.236-0.033c0.174-0.067,0.27-0.206,0.27-0.398
			c0.004-0.197-0.09-0.359-0.266-0.417c-0.236-0.078-0.48-0.032-0.719-0.044c0,0.542,0,1.057,0,1.571
			C15.369,50.082,15.438,50.082,15.522,50.082z M22.35,48.833c0.027-0.255-0.023-0.316-0.268-0.33c-0.049-0.005-0.102-0.005-0.152,0
			c-0.176,0.012-0.309,0.089-0.371,0.257c-0.066,0.174-0.02,0.342,0.129,0.465c0.076,0.063,0.168,0.117,0.252,0.176
			c0.072,0.045,0.148,0.084,0.205,0.153c0.113,0.142,0.059,0.295-0.121,0.334c-0.125,0.028-0.238-0.014-0.34-0.083
			c-0.047-0.031-0.086-0.07-0.141-0.115c-0.002,0.104-0.012,0.196,0.008,0.28c0.113,0.082,0.236,0.125,0.371,0.132
			c0.234,0.014,0.406-0.085,0.475-0.266c0.07-0.191,0.01-0.402-0.164-0.534c-0.098-0.071-0.205-0.126-0.309-0.192
			c-0.148-0.095-0.205-0.185-0.164-0.283c0.039-0.101,0.189-0.152,0.344-0.11c0.049,0.017,0.096,0.042,0.139,0.063
			C22.281,48.797,22.305,48.836,22.35,48.833z M2.203,29.802c0.564,0,1.117,0,1.678,0c-0.005-0.117,0.018-0.224-0.016-0.321
			c-0.561,0-1.107,0-1.664,0C2.203,29.589,2.203,29.689,2.203,29.802z M3.881,20.87c-0.005-0.119,0.02-0.225-0.018-0.328
			c-0.555,0-1.104,0-1.672,0c0.01,0.111-0.014,0.216,0.017,0.328C2.763,20.87,3.312,20.87,3.881,20.87z M20.803,50.082
			c0-0.53,0-1.043,0-1.565c-0.078-0.008-0.148-0.02-0.217,0.011c0,0.521,0,1.033,0,1.556C20.658,50.082,20.725,50.082,20.803,50.082
			z M1.692,20.502c-0.119,0.003-0.202,0.097-0.195,0.216c0.005,0.11,0.083,0.181,0.203,0.18c0.12,0,0.196-0.084,0.189-0.208
			C1.885,20.577,1.801,20.5,1.692,20.502z M1.892,29.643c0-0.109-0.084-0.199-0.188-0.203c-0.11-0.006-0.207,0.09-0.209,0.201
			c0,0.111,0.102,0.208,0.207,0.205C1.81,29.84,1.892,29.753,1.892,29.643z"/>
		<path fill="#1B1A1F" d="M5.739,58.693c0-0.883-0.002-1.765,0-2.646c0.002-0.425,0.092-0.832,0.342-1.185
			c0.431-0.598,1.025-0.838,1.738-0.705c0.711,0.131,1.162,0.58,1.363,1.272c0.055,0.197,0.075,0.394,0.071,0.597
			c0,0.392,0,0.778,0,1.185c0.785,0,1.564,0,2.361,0c0.006,0.504,0.01,0.993,0.016,1.481C9.663,58.693,7.702,58.693,5.739,58.693z
			 M8.177,57.216c0-0.281,0.004-0.543,0-0.806c-0.003-0.113-0.023-0.228-0.058-0.338c-0.1-0.313-0.306-0.447-0.669-0.437
			c-0.312,0.011-0.499,0.172-0.573,0.488c-0.033,0.138-0.046,0.282-0.052,0.425c-0.01,0.221-0.003,0.439-0.003,0.666
			C7.281,57.216,7.721,57.216,8.177,57.216z"/>
		<path fill="#1B1A1F" d="M16.379,0.995c0,0.698,0,1.397,0,2.111c1.59,0,3.176,0,4.773,0c0,0.495,0,0.973,0,1.471
			c-1.584,0-3.174,0-4.777,0c0,0.717,0,1.415,0,2.124c-0.363,0-0.717,0-1.074,0c-0.033-0.056-0.014-0.12-0.014-0.181
			c0-1.776,0-3.558-0.002-5.334c0-0.062-0.004-0.125-0.004-0.188C15.645,0.995,16.01,0.995,16.379,0.995z"/>
		<path fill="#1B1A1F" d="M24.813,48.607c-0.131,0.2-0.203,0.431-0.305,0.646c-0.111,0.231-0.211,0.472-0.316,0.703
			c-0.021,0.047-0.031,0.102-0.082,0.137c-0.068-0.005-0.123-0.042-0.189-0.077c0.184-0.422,0.371-0.835,0.564-1.27
			c-0.229,0-0.438,0-0.652,0c-0.023-0.078-0.016-0.146-0.01-0.239c0.332,0,0.66,0,0.99,0C24.813,48.538,24.813,48.572,24.813,48.607
			z"/>
		<path fill="#1B1A1F" d="M1.438,17.038c0.048-0.039,0.071,0.013,0.099,0.03c0.107,0.076,0.205,0.164,0.317,0.234
			c0.117,0.073,0.167,0.167,0.122,0.311c-0.178-0.076-0.36-0.155-0.538-0.233C1.438,17.268,1.438,17.154,1.438,17.038z"/>
		<path fill="#1B1A1F" d="M21.239,11.292c-0.006,0.56-0.217,1.347-0.777,2.001c-0.646,0.762-1.479,1.137-2.475,1.048
			c-1.055-0.099-1.842-0.652-2.352-1.578c-0.379-0.681-0.477-1.422-0.402-2.191c0.057-0.628,0.244-1.212,0.627-1.718
			c0.674-0.881,1.566-1.319,2.676-1.204c1,0.103,1.744,0.645,2.25,1.51C21.104,9.701,21.239,10.293,21.239,11.292z M16.449,10.989
			c0,0.079-0.008,0.161,0.002,0.237c0.07,0.626,0.34,1.126,0.916,1.422c0.322,0.169,0.676,0.219,1.033,0.186
			c0.68-0.061,1.191-0.387,1.455-1.034c0.213-0.514,0.215-1.04,0.029-1.561c-0.16-0.453-0.469-0.781-0.918-0.963
			C18.6,9.129,18.221,9.105,17.84,9.175c-0.33,0.059-0.625,0.194-0.863,0.429C16.582,9.983,16.442,10.457,16.449,10.989z"/>
		<path fill="#1B1A1F" d="M21.16,34.832c-1.965,0-3.91,0-5.857,0c-0.031-0.049-0.018-0.098-0.018-0.141
			c0-0.852-0.012-1.697,0.004-2.547c0.01-0.721,0.166-1.406,0.596-2.01c0.467-0.648,1.113-1.006,1.898-1.113
			c0.59-0.08,1.17-0.021,1.717,0.213c0.719,0.311,1.17,0.865,1.428,1.588c0.164,0.471,0.23,0.957,0.236,1.447
			c0.012,0.83,0.004,1.655,0.004,2.479C21.164,34.771,21.16,34.795,21.16,34.832z M20.084,33.357c0-0.301,0.002-0.584,0-0.863
			c-0.002-0.213-0.014-0.424-0.061-0.629c-0.127-0.599-0.469-1.025-1.055-1.233c-0.396-0.142-0.803-0.164-1.219-0.08
			c-0.717,0.146-1.158,0.581-1.322,1.293c-0.029,0.129-0.055,0.259-0.055,0.392c0.004,0.373,0,0.74,0,1.121
			C17.614,33.357,18.84,33.357,20.084,33.357z"/>
		<path fill="#1B1A1F" d="M15.303,46.34c-0.031-0.059-0.02-0.117-0.02-0.175c0-0.826-0.006-1.652,0.002-2.478
			c0.008-0.596,0.111-1.172,0.396-1.705c0.441-0.826,1.137-1.295,2.061-1.432c0.523-0.081,1.039-0.045,1.539,0.12
			c0.729,0.242,1.23,0.729,1.543,1.427c0.236,0.53,0.328,1.096,0.336,1.67c0.016,0.838,0.004,1.676,0.004,2.516
			c0,0.015-0.008,0.029-0.008,0.061C19.203,46.34,17.252,46.34,15.303,46.34z M20.084,44.879c0-0.227-0.002-0.441,0-0.657
			c0.002-0.274,0-0.551-0.055-0.821c-0.104-0.513-0.365-0.912-0.838-1.153c-0.432-0.224-0.896-0.265-1.369-0.183
			c-0.803,0.135-1.279,0.618-1.416,1.42c-0.055,0.321-0.025,0.643-0.031,0.961c-0.006,0.143-0.002,0.285-0.002,0.436
			C17.614,44.879,18.84,44.879,20.084,44.879z"/>
		<path fill="#1B1A1F" d="M18.412,17.115c0.281-0.453,0.734-0.649,1.172-0.855c0.486-0.23,0.977-0.449,1.465-0.672
			c0.029-0.014,0.057-0.039,0.096-0.033c0.027,0.131,0.035,1.285,0.014,1.597c-0.312,0.166-0.646,0.301-0.977,0.445
			c-0.262,0.113-0.525,0.227-0.771,0.371c-0.119,0.068-0.234,0.144-0.338,0.237c-0.188,0.168-0.301,0.37-0.287,0.63
			c0.004,0.118,0.002,0.239,0.002,0.375c0.791,0,1.572,0,2.369,0c0,0.497,0,0.979,0,1.471c-1.951,0-3.896,0-5.848,0
			c-0.041-0.035-0.02-0.085-0.02-0.128c-0.002-0.842-0.006-1.684,0.002-2.528c0.004-0.57,0.182-1.076,0.613-1.477
			c0.613-0.567,1.82-0.639,2.389,0.362C18.33,16.972,18.364,17.033,18.412,17.115z M16.375,19.205c0.451,0,0.877,0,1.32,0
			c0-0.247,0-0.486,0-0.725c-0.004-0.075-0.004-0.151-0.014-0.225c-0.049-0.385-0.291-0.605-0.662-0.605
			c-0.363,0.001-0.596,0.216-0.637,0.606C16.354,18.569,16.375,18.882,16.375,19.205z"/>
		<path fill="#1B1A1F" d="M8.872,41.869c0.172-0.303,0.426-0.479,0.707-0.631c0.644-0.34,1.321-0.608,1.974-0.928
			c0.016-0.01,0.031-0.004,0.059-0.01c0,0.53,0,1.055,0,1.589c-0.146,0.097-0.324,0.164-0.492,0.242
			c-0.379,0.172-0.76,0.319-1.127,0.511c-0.188,0.096-0.369,0.208-0.521,0.358c-0.148,0.151-0.229,0.327-0.236,0.537
			c-0.003,0.132-0.003,0.266-0.003,0.415c0.796,0,1.582,0,2.382,0c0,0.496,0,0.976,0,1.468c-1.953,0-3.906,0-5.854,0
			c-0.028-0.05-0.021-0.104-0.021-0.152c0-0.831-0.002-1.663,0.002-2.495c0.002-0.428,0.108-0.826,0.35-1.185
			c0.42-0.601,1.172-0.854,1.851-0.625c0.326,0.108,0.562,0.324,0.748,0.604C8.756,41.656,8.802,41.752,8.872,41.869z M8.151,43.956
			c0-0.063,0-0.105,0-0.152c0-0.235,0-0.469-0.002-0.706c-0.002-0.092-0.027-0.181-0.056-0.267c-0.118-0.351-0.369-0.44-0.626-0.438
			c-0.323,0.005-0.516,0.16-0.596,0.47c-0.096,0.36-0.034,0.725-0.051,1.093C7.273,43.956,7.702,43.956,8.151,43.956z"/>
		<path fill="#1B1A1F" d="M11.614,47.052c0,0.543,0,1.062,0,1.582c-0.378,0.16-0.758,0.319-1.146,0.479c0,0.867,0,1.736,0,2.625
			c0.375,0.142,0.755,0.287,1.144,0.435c0,0.511,0,1.021,0,1.558c-1.958-0.789-3.906-1.574-5.859-2.363c0-0.566,0-1.135,0-1.711
			C7.7,48.792,9.65,47.926,11.614,47.052z M7.16,50.49c0.775,0.293,1.51,0.569,2.256,0.851c0-0.601,0-1.185,0-1.786
			C8.669,49.863,7.931,50.172,7.16,50.49z"/>
		<path fill="#1B1A1F" d="M15.293,27.252c0-1.42,0-2.833,0-4.257c0.359,0,0.703,0,1.076,0c0,0.926,0,1.849,0,2.783
			c0.41,0,0.807,0,1.215,0c0-0.877,0-1.758,0-2.647c0.371,0,0.725,0,1.094,0c0,0.877,0,1.758,0,2.647c0.477,0,0.936,0,1.41,0
			c0-0.955,0-1.9,0-2.85c0.361,0,0.711,0,1.068,0c0,1.441,0,2.876,0,4.324C19.203,27.252,17.252,27.252,15.293,27.252z"/>
		<path fill="#1B1A1F" d="M6.122,30.906c0.385,0,0.756,0,1.144,0c-0.097,0.257-0.208,0.494-0.294,0.74
			c-0.107,0.305-0.189,0.614-0.223,0.934c-0.021,0.22,0,0.434,0.062,0.646c0.02,0.074,0.056,0.147,0.101,0.211
			c0.156,0.219,0.403,0.24,0.595,0.053c0.107-0.107,0.174-0.234,0.235-0.373c0.154-0.336,0.263-0.693,0.405-1.039
			c0.111-0.264,0.235-0.521,0.405-0.754c0.395-0.539,0.931-0.762,1.59-0.68c0.672,0.082,1.104,0.485,1.352,1.098
			c0.199,0.49,0.228,1.002,0.193,1.521c-0.042,0.624-0.25,1.193-0.561,1.736c-0.416,0-0.828,0-1.262,0
			c0.144-0.243,0.291-0.467,0.412-0.703c0.25-0.48,0.382-0.989,0.321-1.538c-0.014-0.121-0.045-0.235-0.103-0.344
			c-0.168-0.326-0.541-0.369-0.775-0.091c-0.14,0.168-0.221,0.363-0.296,0.562c-0.135,0.351-0.246,0.711-0.407,1.054
			c-0.146,0.311-0.325,0.59-0.583,0.82c-0.592,0.525-1.894,0.604-2.456-0.468c-0.17-0.318-0.263-0.66-0.296-1.015
			C5.604,32.449,5.775,31.662,6.122,30.906z"/>
		<path fill="#D31F41" d="M15.295,38.589c0-0.479,0-0.955,0-1.438c1.953,0,3.902,0,5.865,0c0,0.478,0,0.953,0,1.438
			C19.203,38.589,17.252,38.589,15.295,38.589z"/>
		<path fill="#D31F41" d="M5.747,38.591c0-0.487,0-0.96,0-1.44c1.955,0,3.903,0,5.863,0c0,0.475,0,0.953,0,1.44
			C9.656,38.591,7.708,38.591,5.747,38.591z"/>
		<path fill="#1B1A1F" d="M13.454,38.673c-0.456,0.003-0.817-0.356-0.822-0.812c-0.001-0.444,0.367-0.819,0.819-0.822
			c0.444-0.006,0.821,0.365,0.821,0.818C14.264,38.384,13.836,38.688,13.454,38.673z"/>
		<path fill="#1B1A1F" d="M3.09,16.649c0,0.2,0,0.387,0,0.574c0,0.188,0,0.375,0,0.564c0.312,0.008,0.524-0.236,0.497-0.562
			c-0.011-0.139-0.042-0.271-0.108-0.394c-0.025-0.05-0.051-0.099-0.075-0.146c0.012-0.01,0.015-0.017,0.021-0.017
			c0.303-0.025,0.347,0.004,0.437,0.292c0.036,0.118,0.056,0.235,0.056,0.357c0.001,0.37-0.206,0.666-0.558,0.781
			c-0.208,0.067-0.424,0.074-0.641,0.01c-0.445-0.133-0.672-0.585-0.508-1.021c0.042-0.11,0.109-0.204,0.204-0.272
			C2.614,16.679,2.842,16.64,3.09,16.649z M2.859,16.981c-0.284,0.04-0.401,0.16-0.396,0.401c0.007,0.237,0.14,0.38,0.396,0.406
			C2.859,17.523,2.859,17.253,2.859,16.981z"/>
		<path fill="#1B1A1F" d="M3.087,25.269c0,0.395,0,0.777,0,1.158c0.417-0.028,0.582-0.382,0.466-0.785
			c-0.032-0.114-0.095-0.221-0.149-0.323c0.015-0.011,0.023-0.021,0.031-0.021c0.308-0.009,0.371,0.036,0.439,0.337
			c0.037,0.159,0.059,0.319,0.026,0.479c-0.094,0.483-0.574,0.759-1.113,0.64c-0.47-0.104-0.724-0.527-0.59-0.99
			c0.039-0.135,0.115-0.25,0.232-0.33C2.624,25.3,2.845,25.258,3.087,25.269z M2.857,26.425c0-0.276,0-0.544,0-0.81
			c-0.246,0.013-0.375,0.125-0.391,0.326C2.442,26.203,2.562,26.355,2.857,26.425z"/>
		<path fill="#1B1A1F" d="M3.876,32.904c0,0.111,0,0.215,0,0.312c-0.05,0.039-0.11,0-0.164,0.042
			c0.041,0.064,0.09,0.125,0.125,0.195c0.197,0.365,0.007,0.764-0.403,0.837c-0.112,0.018-0.228,0.026-0.342,0.026
			c-0.293-0.004-0.583,0-0.887,0c0-0.115,0-0.222,0-0.346c0.089,0,0.18,0,0.27,0c0.262,0,0.524,0.005,0.789,0
			c0.213-0.005,0.313-0.082,0.356-0.255c0.038-0.16-0.06-0.382-0.197-0.462c-0.05-0.025-0.101-0.021-0.151-0.021
			c-0.298,0-0.596,0.004-0.894,0c-0.056,0-0.113,0.015-0.177-0.016c0-0.098,0-0.203,0-0.304C2.337,32.887,3.523,32.88,3.876,32.904z
			"/>
		<path fill="#1B1A1F" d="M3.876,31.732c0,0.114,0,0.215,0,0.323c-0.558,0-1.111,0-1.675,0c0-0.106,0-0.208,0-0.317
			c0.062-0.004,0.117-0.008,0.176-0.008c0.016-0.057-0.041-0.074-0.066-0.107c-0.309-0.395-0.11-0.92,0.381-0.963
			c0.056-0.006,0.115-0.018,0.174-0.018c0.333-0.002,0.662-0.002,1.004-0.002c0,0.116,0,0.223,0,0.346c-0.325,0-0.648,0-0.974-0.004
			c-0.089-0.002-0.174,0.008-0.252,0.041c-0.172,0.065-0.242,0.229-0.185,0.404c0.067,0.202,0.199,0.305,0.414,0.305
			C3.204,31.736,3.536,31.732,3.876,31.732z"/>
		<path fill="#1B1A1F" d="M3.753,22.762c-0.104,0-0.214,0-0.332,0c0.005-0.066,0.054-0.115,0.076-0.167
			c0.052-0.097,0.095-0.196,0.11-0.306c0.014-0.074,0.011-0.149-0.03-0.218c-0.062-0.11-0.161-0.123-0.252-0.035
			c-0.073,0.073-0.116,0.167-0.167,0.257c-0.065,0.11-0.126,0.216-0.213,0.311c-0.124,0.135-0.275,0.181-0.45,0.137
			c-0.17-0.046-0.261-0.173-0.302-0.339c-0.064-0.244-0.003-0.463,0.108-0.683c0.104,0,0.202,0,0.321,0
			c-0.041,0.085-0.078,0.159-0.107,0.236c-0.036,0.095-0.06,0.197-0.04,0.303c0.01,0.067,0.037,0.122,0.104,0.143
			c0.066,0.02,0.112-0.018,0.148-0.067c0.064-0.091,0.128-0.186,0.19-0.284c0.06-0.095,0.127-0.187,0.201-0.277
			c0.2-0.246,0.58-0.145,0.704,0.072c0.127,0.215,0.107,0.438,0.048,0.663C3.846,22.599,3.816,22.687,3.753,22.762z"/>
		<path fill="#1B1A1F" d="M2.203,28.855c0-0.129,0-0.24,0-0.369c0.325-0.146,0.658-0.291,1.015-0.449
			c-0.353-0.153-0.681-0.295-1.015-0.436C2.191,27.482,2.191,27.373,2.2,27.26c0.056-0.016,0.092,0.014,0.135,0.033
			c0.485,0.21,0.975,0.422,1.461,0.632c0.023,0.007,0.045,0.017,0.063,0.024c0.08,0.047,0.084,0.129-0.002,0.168
			C3.31,28.367,2.763,28.607,2.203,28.855z"/>
		<path fill="#1B1A1F" d="M3.497,18.691c0.108,0,0.202,0,0.31,0c0.085,0.178,0.144,0.359,0.092,0.557
			c-0.054,0.226-0.195,0.362-0.43,0.376c-0.252,0.013-0.503,0.009-0.757,0.009c-0.059,0-0.125,0-0.188,0
			c-0.039,0.096-0.001,0.197-0.028,0.307c-0.233-0.189-0.409-0.417-0.625-0.618c0.107-0.052,0.212-0.012,0.312-0.038
			c0.035-0.164-0.008-0.337,0.024-0.511c0.095,0,0.18,0,0.283,0c0.033,0.162,0.002,0.332,0.021,0.517
			c0.298,0,0.593,0.008,0.886-0.002c0.136-0.004,0.204-0.105,0.208-0.249c0.003-0.064-0.019-0.125-0.036-0.184
			C3.552,18.805,3.525,18.756,3.497,18.691z"/>
		<path fill="#1B1A1F" d="M18.75,48.511c0.182,0.009,0.357-0.015,0.531,0.021c0.189,0.033,0.32,0.133,0.363,0.319
			c0.039,0.188-0.014,0.353-0.188,0.462c-0.016,0.012-0.025,0.021-0.045,0.035c0.24,0.194,0.336,0.486,0.535,0.715
			c-0.248,0.055-0.25,0.055-0.375-0.142c-0.086-0.134-0.166-0.274-0.273-0.392c-0.088-0.092-0.186-0.153-0.33-0.107
			c0,0.215,0,0.434,0,0.656c-0.074,0.018-0.143,0.012-0.219,0.007C18.75,49.562,18.75,49.042,18.75,48.511z M18.975,48.716
			c0,0.162,0,0.312,0,0.474c0.152-0.002,0.309,0.047,0.406-0.115c0.045-0.075,0.051-0.166,0-0.24
			C19.281,48.679,19.129,48.719,18.975,48.716z"/>
		<path fill="#1B1A1F" d="M3.876,24.173c0,0.12,0,0.224,0,0.334c-0.559,0-1.111,0-1.675,0c0-0.108,0-0.214,0-0.33
			c0.111,0,0.21,0,0.348,0c-0.181-0.149-0.376-0.252-0.386-0.487c-0.002-0.154,0.075-0.281,0.195-0.391
			c0.101,0.034,0.186,0.105,0.278,0.154c-0.006,0.07-0.058,0.104-0.085,0.149c-0.119,0.196-0.042,0.341,0.069,0.444
			c0.104,0.092,0.229,0.127,0.364,0.127C3.279,24.173,3.571,24.173,3.876,24.173z"/>
		<path fill="#1B1A1F" d="M17.008,49.623c-0.07,0.164-0.133,0.31-0.199,0.458c-0.076,0.012-0.15,0.015-0.236-0.007
			c0.225-0.524,0.445-1.041,0.664-1.559c0.057-0.018,0.109-0.014,0.174-0.006c0.23,0.516,0.463,1.035,0.697,1.561
			c-0.082,0.027-0.152,0.015-0.232,0.015c-0.059-0.129-0.125-0.253-0.178-0.386c-0.021-0.059-0.055-0.078-0.115-0.078
			C17.399,49.623,17.205,49.623,17.008,49.623z M17.324,48.863c-0.078,0.197-0.15,0.371-0.225,0.543c0.162,0,0.307,0,0.465,0
			C17.483,49.225,17.41,49.061,17.324,48.863z"/>
		<path fill="#1B1A1F" d="M15.522,50.082c-0.084,0-0.154,0-0.229,0c0-0.518,0-1.03,0-1.572c0.236,0.01,0.48-0.033,0.719,0.042
			c0.174,0.058,0.27,0.222,0.264,0.422c0,0.188-0.096,0.328-0.27,0.394c-0.074,0.027-0.154,0.039-0.234,0.035
			c-0.078,0-0.158,0-0.25,0C15.522,49.637,15.522,49.857,15.522,50.082z M15.526,49.189c0.123,0,0.225,0.012,0.326-0.002
			c0.119-0.015,0.184-0.109,0.186-0.228s-0.053-0.187-0.172-0.228c-0.111-0.031-0.223-0.015-0.342-0.018
			C15.526,48.883,15.526,49.031,15.526,49.189z"/>
		<path fill="#1B1A1F" d="M22.35,48.833c-0.045,0.003-0.068-0.036-0.105-0.054c-0.045-0.021-0.088-0.047-0.139-0.062
			c-0.154-0.043-0.305,0.007-0.342,0.108c-0.041,0.098,0.014,0.188,0.164,0.283c0.102,0.064,0.209,0.121,0.307,0.19
			c0.174,0.132,0.234,0.345,0.168,0.534c-0.07,0.184-0.242,0.279-0.477,0.266c-0.133-0.009-0.258-0.05-0.371-0.132
			c-0.02-0.087-0.01-0.176-0.008-0.28c0.055,0.043,0.098,0.084,0.141,0.115c0.102,0.071,0.211,0.111,0.34,0.083
			c0.178-0.039,0.234-0.192,0.121-0.333c-0.057-0.07-0.133-0.109-0.207-0.154c-0.082-0.059-0.172-0.109-0.254-0.176
			c-0.146-0.123-0.193-0.291-0.127-0.465c0.062-0.168,0.197-0.243,0.373-0.256c0.049-0.006,0.102-0.006,0.152,0
			C22.326,48.52,22.379,48.578,22.35,48.833z"/>
		<path fill="#1B1A1F" d="M2.203,29.802c0-0.112,0-0.213,0-0.321c0.557,0,1.104,0,1.664,0c0.031,0.1,0.01,0.205,0.015,0.321
			C3.321,29.802,2.767,29.802,2.203,29.802z"/>
		<path fill="#1B1A1F" d="M3.881,20.87c-0.568,0-1.117,0-1.673,0c-0.027-0.11-0.007-0.216-0.017-0.328c0.568,0,1.116,0,1.672,0
			C3.9,20.645,3.876,20.751,3.881,20.87z"/>
		<path fill="#1B1A1F" d="M20.803,50.082c-0.078,0-0.146,0-0.217,0c0-0.521,0-1.034,0-1.557c0.068-0.027,0.137-0.018,0.217-0.01
			C20.803,49.039,20.803,49.552,20.803,50.082z"/>
		<path fill="#1B1A1F" d="M1.692,20.502c0.108-0.001,0.192,0.074,0.196,0.186c0.007,0.125-0.069,0.211-0.189,0.211
			c-0.118,0.001-0.196-0.073-0.202-0.182C1.491,20.599,1.575,20.505,1.692,20.502z"/>
		<path fill="#1B1A1F" d="M1.892,29.643c0,0.11-0.082,0.197-0.19,0.203c-0.104,0.003-0.207-0.094-0.207-0.205
			c0.002-0.113,0.099-0.208,0.209-0.201C1.804,29.443,1.892,29.533,1.892,29.643z"/>
		<path fill="none" d="M8.177,57.216c-0.456,0-0.896,0-1.354,0c0-0.228-0.006-0.446,0.004-0.668c0.006-0.142,0.02-0.285,0.051-0.423
			c0.076-0.319,0.261-0.479,0.572-0.488c0.363-0.015,0.57,0.123,0.67,0.438c0.033,0.109,0.055,0.224,0.057,0.336
			C8.182,56.673,8.177,56.938,8.177,57.216z"/>
		<path fill="none" d="M16.449,10.989c-0.008-0.533,0.133-1.005,0.527-1.385c0.238-0.233,0.531-0.372,0.863-0.428
			c0.381-0.068,0.76-0.046,1.127,0.102c0.447,0.182,0.758,0.511,0.918,0.963c0.184,0.521,0.182,1.047-0.029,1.562
			c-0.264,0.646-0.775,0.971-1.455,1.029c-0.359,0.033-0.711-0.016-1.033-0.182c-0.574-0.297-0.848-0.796-0.918-1.421
			C16.442,11.151,16.449,11.069,16.449,10.989z"/>
		<path fill="none" d="M20.084,33.357c-1.244,0-2.471,0-3.709,0c0-0.377,0.006-0.75,0-1.121c0-0.134,0.023-0.264,0.057-0.393
			c0.164-0.714,0.604-1.146,1.324-1.294c0.412-0.083,0.818-0.062,1.217,0.081c0.588,0.208,0.928,0.633,1.055,1.232
			c0.045,0.207,0.057,0.418,0.061,0.627C20.086,32.775,20.084,33.057,20.084,33.357z"/>
		<path fill="none" d="M20.084,44.879c-1.244,0-2.471,0-3.711,0c0-0.148-0.004-0.292,0.002-0.436
			c0.008-0.318-0.021-0.639,0.031-0.961c0.137-0.801,0.613-1.287,1.414-1.42c0.475-0.082,0.938-0.041,1.373,0.182
			c0.471,0.242,0.732,0.644,0.836,1.154c0.055,0.272,0.055,0.545,0.053,0.821C20.082,44.438,20.084,44.654,20.084,44.879z"/>
		<path fill="none" d="M16.375,19.205c0-0.322-0.02-0.636,0.01-0.947c0.041-0.389,0.275-0.603,0.637-0.606
			c0.371,0,0.613,0.22,0.664,0.604c0.008,0.074,0.008,0.15,0.012,0.226c0,0.237,0,0.476,0,0.725
			C17.252,19.205,16.826,19.205,16.375,19.205z"/>
		<path fill="none" d="M8.151,43.956c-0.45,0-0.877,0-1.33,0c0.016-0.368-0.045-0.731,0.051-1.093c0.08-0.31,0.274-0.465,0.597-0.47
			c0.257-0.004,0.508,0.091,0.625,0.438c0.027,0.087,0.054,0.176,0.056,0.268c0.002,0.236,0.002,0.47,0.002,0.706
			C8.151,43.848,8.151,43.893,8.151,43.956z"/>
		<path fill="none" d="M7.16,50.49c0.771-0.32,1.509-0.625,2.256-0.936c0,0.604,0,1.186,0,1.786
			C8.67,51.061,7.935,50.783,7.16,50.49z"/>
		<path fill="none" d="M2.859,16.981c0,0.271,0,0.54,0,0.807c-0.258-0.025-0.39-0.167-0.396-0.406
			C2.458,17.141,2.575,17.021,2.859,16.981z"/>
		<path fill="none" d="M2.857,26.425c-0.294-0.069-0.417-0.222-0.391-0.479c0.016-0.205,0.145-0.316,0.391-0.328
			C2.857,25.881,2.857,26.146,2.857,26.425z"/>
		<path fill="none" d="M18.975,48.716c0.152,0.003,0.307-0.038,0.406,0.117c0.051,0.077,0.045,0.165,0,0.243
			c-0.1,0.158-0.254,0.111-0.406,0.111C18.975,49.027,18.975,48.878,18.975,48.716z"/>
		<path fill="none" d="M17.324,48.863c0.086,0.196,0.158,0.36,0.24,0.543c-0.16,0-0.305,0-0.465,0
			C17.172,49.232,17.244,49.062,17.324,48.863z"/>
		<path fill="none" d="M15.526,49.189c0-0.156,0-0.31,0-0.474c0.121,0.003,0.23-0.015,0.342,0.019
			c0.119,0.039,0.174,0.107,0.172,0.227s-0.068,0.213-0.186,0.229C15.75,49.201,15.647,49.189,15.526,49.189z"/>
	</g>
</g>
</svg>
