<?xml version="1.0" encoding="utf-8"?>
<!-- Generator: Adobe Illustrator 16.0.0, SVG Export Plug-In . SVG Version: 6.00 Build 0)  -->
<!DOCTYPE svg PUBLIC "-//W3C//DTD SVG 1.1//EN" "http://www.w3.org/Graphics/SVG/1.1/DTD/svg11.dtd">
<svg version="1.1" id="Layer_1" xmlns="http://www.w3.org/2000/svg" xmlns:xlink="http://www.w3.org/1999/xlink" x="0px" y="0px"
	 width="177.225px" height="40px" viewBox="0 0 177.225 40" enable-background="new 0 0 177.225 40" xml:space="preserve">
<g>
	<path d="M138.755,35.605c-0.055,0-0.105-0.007-0.156-0.016c-0.051-0.013-0.096-0.035-0.134-0.065
		c-0.037-0.035-0.066-0.078-0.092-0.14c-0.023-0.06-0.036-0.14-0.036-0.236v-2.356h0.709V32.29h-0.709v-0.922h-0.648v0.922h-0.69
		v0.502h0.69v2.353c0,0.188,0.021,0.353,0.068,0.479c0.046,0.131,0.108,0.235,0.189,0.315c0.081,0.078,0.173,0.136,0.277,0.17
		c0.106,0.033,0.221,0.052,0.341,0.052c0.115,0,0.217-0.008,0.3-0.025c0.082-0.016,0.146-0.031,0.2-0.046v-0.525
		c-0.035,0.007-0.081,0.017-0.139,0.026C138.865,35.601,138.81,35.605,138.755,35.605 M131.573,32.532
		c0.059-0.225,0.144-0.414,0.26-0.572c0.116-0.157,0.261-0.279,0.433-0.368c0.174-0.086,0.372-0.134,0.601-0.134
		c0.199,0,0.369,0.027,0.509,0.082c0.141,0.058,0.258,0.134,0.351,0.231c0.097,0.101,0.173,0.222,0.228,0.366
		c0.053,0.141,0.092,0.304,0.119,0.48h0.676c-0.024-0.252-0.082-0.484-0.175-0.693c-0.091-0.211-0.216-0.391-0.37-0.539
		c-0.156-0.155-0.346-0.27-0.568-0.354c-0.221-0.084-0.479-0.127-0.766-0.127c-0.317,0-0.604,0.058-0.854,0.17
		c-0.254,0.112-0.471,0.272-0.648,0.479c-0.179,0.209-0.313,0.457-0.41,0.749c-0.097,0.293-0.146,0.619-0.146,0.979v0.515
		c0,0.356,0.049,0.682,0.145,0.974c0.096,0.29,0.229,0.539,0.401,0.747c0.177,0.206,0.386,0.367,0.632,0.479
		c0.246,0.11,0.521,0.168,0.82,0.168c0.309,0,0.575-0.043,0.807-0.129c0.229-0.086,0.423-0.203,0.584-0.354
		c0.155-0.149,0.284-0.328,0.374-0.536c0.09-0.207,0.146-0.433,0.177-0.674h-0.679c-0.028,0.179-0.068,0.341-0.122,0.482
		c-0.057,0.143-0.13,0.262-0.229,0.357c-0.098,0.1-0.22,0.173-0.366,0.225c-0.148,0.051-0.328,0.078-0.546,0.078
		c-0.228,0-0.424-0.05-0.591-0.146c-0.165-0.093-0.303-0.224-0.412-0.392c-0.104-0.162-0.187-0.354-0.237-0.576
		c-0.056-0.221-0.08-0.454-0.08-0.705v-0.522C131.485,33.004,131.514,32.757,131.573,32.532 M142.48,30.698h-0.789l-0.68,1.032
		h0.523L142.48,30.698z M142.289,33.84h-1.905c0.021-0.175,0.062-0.329,0.116-0.468c0.057-0.135,0.131-0.248,0.217-0.342
		c0.085-0.091,0.186-0.16,0.295-0.207c0.107-0.051,0.23-0.074,0.361-0.074c0.165,0,0.307,0.031,0.418,0.094
		c0.113,0.061,0.204,0.139,0.277,0.238c0.068,0.098,0.122,0.209,0.154,0.332c0.035,0.125,0.056,0.25,0.062,0.377v0.05H142.289z
		 M142.566,32.749c-0.132-0.164-0.291-0.293-0.489-0.392c-0.195-0.095-0.43-0.142-0.701-0.142c-0.217,0-0.424,0.043-0.622,0.133
		c-0.2,0.089-0.376,0.215-0.531,0.38c-0.153,0.168-0.276,0.371-0.371,0.615c-0.092,0.243-0.137,0.521-0.137,0.83v0.146
		c0,0.27,0.04,0.514,0.121,0.738c0.083,0.225,0.2,0.418,0.353,0.581c0.151,0.163,0.337,0.29,0.551,0.382
		c0.215,0.09,0.453,0.139,0.719,0.139c0.19,0,0.357-0.021,0.509-0.062c0.149-0.041,0.283-0.097,0.399-0.164
		c0.117-0.069,0.217-0.147,0.303-0.237c0.087-0.088,0.161-0.179,0.222-0.271l-0.396-0.312c-0.122,0.153-0.262,0.28-0.421,0.375
		c-0.156,0.092-0.354,0.141-0.583,0.141c-0.174,0-0.326-0.031-0.465-0.1c-0.139-0.064-0.254-0.154-0.353-0.269
		c-0.097-0.11-0.173-0.242-0.226-0.396c-0.053-0.152-0.082-0.316-0.085-0.494h2.577v-0.293c0-0.266-0.033-0.513-0.094-0.739
		C142.782,33.114,142.691,32.92,142.566,32.749 M137.174,23.536c0.128,0,0.225-0.035,0.287-0.104
		c0.067-0.071,0.102-0.16,0.102-0.265c0-0.106-0.032-0.194-0.102-0.27c-0.062-0.072-0.159-0.107-0.287-0.107
		c-0.126,0-0.221,0.035-0.286,0.107c-0.062,0.073-0.097,0.161-0.097,0.27c0,0.104,0.034,0.191,0.097,0.265
		C136.952,23.499,137.047,23.536,137.174,23.536 M135.693,36.089h0.647v-3.803h-0.647V36.089z M137.495,24.173h-0.649v3.804h0.649
		V24.173z M135.869,26.921c0-0.154-0.027-0.291-0.083-0.406c-0.058-0.116-0.137-0.221-0.25-0.311
		c-0.112-0.09-0.254-0.17-0.426-0.238c-0.172-0.067-0.374-0.131-0.606-0.184c-0.178-0.037-0.326-0.078-0.438-0.117
		c-0.115-0.036-0.204-0.082-0.271-0.127c-0.063-0.043-0.111-0.099-0.133-0.151c-0.022-0.058-0.035-0.12-0.035-0.188
		c0-0.069,0.014-0.14,0.043-0.205c0.027-0.066,0.072-0.127,0.132-0.182c0.062-0.052,0.142-0.093,0.234-0.125
		c0.095-0.033,0.209-0.049,0.348-0.049c0.128,0,0.24,0.02,0.34,0.057c0.102,0.04,0.183,0.09,0.248,0.152
		c0.069,0.062,0.12,0.131,0.154,0.212c0.036,0.078,0.054,0.155,0.054,0.233h0.653c0-0.164-0.034-0.32-0.099-0.465
		c-0.065-0.145-0.161-0.271-0.286-0.375c-0.125-0.109-0.278-0.193-0.456-0.254c-0.181-0.062-0.381-0.098-0.609-0.098
		c-0.216,0-0.406,0.031-0.581,0.09c-0.175,0.062-0.318,0.145-0.44,0.244s-0.217,0.221-0.283,0.354c-0.067,0.136-0.1,0.273-0.1,0.425
		c0,0.159,0.028,0.296,0.094,0.413c0.062,0.117,0.156,0.219,0.273,0.305c0.116,0.084,0.26,0.158,0.429,0.219
		c0.171,0.062,0.356,0.114,0.567,0.158c0.188,0.039,0.34,0.084,0.454,0.131c0.115,0.049,0.203,0.1,0.267,0.152
		c0.062,0.056,0.104,0.111,0.126,0.175c0.02,0.063,0.028,0.127,0.028,0.201c0,0.078-0.017,0.147-0.051,0.214
		c-0.035,0.064-0.088,0.126-0.157,0.177c-0.066,0.052-0.15,0.087-0.252,0.116c-0.104,0.029-0.217,0.041-0.353,0.041
		c-0.104,0-0.206-0.012-0.312-0.034c-0.102-0.022-0.195-0.063-0.282-0.118c-0.088-0.06-0.159-0.131-0.218-0.221
		c-0.058-0.092-0.089-0.205-0.097-0.336h-0.651c0,0.156,0.035,0.311,0.104,0.458c0.065,0.147,0.166,0.281,0.297,0.396
		c0.132,0.115,0.294,0.209,0.488,0.279c0.19,0.069,0.416,0.104,0.67,0.104c0.218,0,0.418-0.026,0.601-0.082
		c0.183-0.055,0.333-0.129,0.462-0.229c0.13-0.098,0.229-0.217,0.299-0.356C135.836,27.243,135.869,27.089,135.869,26.921
		 M143.442,25.729h-1.905c0.02-0.176,0.06-0.331,0.116-0.469c0.057-0.136,0.131-0.249,0.215-0.34c0.087-0.093,0.185-0.16,0.297-0.21
		c0.111-0.047,0.231-0.072,0.362-0.072c0.166,0,0.307,0.029,0.419,0.091c0.109,0.062,0.204,0.14,0.273,0.24
		c0.07,0.097,0.125,0.208,0.156,0.333c0.034,0.123,0.055,0.249,0.062,0.377v0.05H143.442z M143.714,24.64
		c-0.126-0.168-0.289-0.298-0.482-0.395c-0.197-0.096-0.433-0.144-0.703-0.144c-0.216,0-0.423,0.044-0.622,0.133
		s-0.376,0.214-0.531,0.382s-0.276,0.371-0.37,0.611c-0.093,0.248-0.139,0.521-0.139,0.831v0.147c0,0.27,0.04,0.515,0.124,0.738
		c0.081,0.227,0.198,0.418,0.35,0.582c0.153,0.161,0.335,0.288,0.55,0.381c0.216,0.09,0.453,0.135,0.719,0.135
		c0.188,0,0.36-0.019,0.511-0.059c0.147-0.041,0.282-0.097,0.397-0.168c0.117-0.066,0.22-0.146,0.306-0.23
		c0.086-0.09,0.16-0.182,0.224-0.272l-0.397-0.312c-0.12,0.154-0.26,0.281-0.419,0.375c-0.158,0.094-0.353,0.141-0.584,0.141
		c-0.173,0-0.325-0.035-0.466-0.102c-0.137-0.062-0.252-0.153-0.351-0.267c-0.097-0.11-0.173-0.243-0.223-0.396
		c-0.057-0.152-0.083-0.317-0.089-0.492h2.577v-0.29c0-0.269-0.032-0.517-0.093-0.741C143.938,25.001,143.844,24.804,143.714,24.64
		 M136.024,30.903c-0.128,0-0.226,0.036-0.289,0.107c-0.062,0.074-0.098,0.161-0.098,0.266c0,0.109,0.034,0.195,0.098,0.269
		c0.063,0.067,0.161,0.104,0.289,0.104c0.126,0,0.221-0.037,0.285-0.104c0.064-0.071,0.1-0.156,0.1-0.269
		c0-0.104-0.033-0.191-0.1-0.266C136.244,30.94,136.15,30.903,136.024,30.903 M140.016,28.022c0.083-0.019,0.146-0.031,0.201-0.046
		v-0.528c-0.035,0.01-0.081,0.018-0.141,0.029c-0.061,0.01-0.117,0.014-0.169,0.014c-0.057,0-0.106-0.007-0.155-0.014
		c-0.052-0.014-0.098-0.036-0.134-0.066c-0.039-0.032-0.07-0.08-0.093-0.139c-0.024-0.061-0.037-0.141-0.037-0.236v-2.357h0.711
		v-0.504h-0.711v-0.919h-0.65v0.919h-0.688v0.504h0.688v2.354c0,0.19,0.023,0.353,0.072,0.479c0.045,0.131,0.107,0.235,0.188,0.313
		c0.08,0.082,0.176,0.14,0.277,0.172c0.107,0.035,0.221,0.051,0.341,0.051C139.834,28.046,139.935,28.038,140.016,28.022
		 M164.54,26.12c0,0.188-0.023,0.362-0.07,0.535c-0.045,0.168-0.111,0.315-0.202,0.445c-0.088,0.127-0.199,0.229-0.338,0.305
		c-0.135,0.073-0.291,0.11-0.471,0.11c-0.179,0-0.338-0.037-0.47-0.11c-0.136-0.078-0.249-0.179-0.339-0.305
		c-0.093-0.13-0.158-0.277-0.202-0.445s-0.065-0.349-0.065-0.535v-0.078c0-0.189,0.021-0.369,0.065-0.538s0.109-0.317,0.202-0.445
		c0.09-0.128,0.2-0.229,0.334-0.31c0.133-0.074,0.291-0.109,0.469-0.109c0.18,0,0.34,0.035,0.475,0.109
		c0.136,0.08,0.25,0.182,0.338,0.31c0.092,0.129,0.158,0.276,0.203,0.445c0.047,0.169,0.07,0.349,0.07,0.538L164.54,26.12
		L164.54,26.12z M164.725,24.657c-0.147-0.17-0.334-0.307-0.546-0.402c-0.215-0.1-0.456-0.15-0.727-0.15
		c-0.264,0-0.504,0.053-0.717,0.15c-0.214,0.098-0.396,0.232-0.542,0.402c-0.148,0.174-0.268,0.381-0.347,0.616
		c-0.083,0.233-0.122,0.489-0.122,0.769v0.078c0,0.275,0.041,0.529,0.122,0.768c0.079,0.234,0.196,0.438,0.349,0.609
		c0.149,0.174,0.332,0.311,0.545,0.404c0.212,0.098,0.451,0.146,0.719,0.146c0.269,0,0.508-0.049,0.721-0.146
		c0.214-0.096,0.396-0.231,0.545-0.404c0.15-0.172,0.267-0.375,0.346-0.609c0.081-0.236,0.12-0.491,0.12-0.768v-0.078
		c0-0.275-0.04-0.533-0.12-0.769S164.876,24.831,164.725,24.657 M168.738,24.422c-0.106-0.112-0.234-0.193-0.387-0.243
		c-0.147-0.05-0.314-0.076-0.501-0.076c-0.238,0-0.453,0.048-0.646,0.146c-0.191,0.098-0.354,0.229-0.492,0.4l-0.02-0.479h-0.616
		v3.802h0.648v-2.708c0.09-0.184,0.216-0.328,0.373-0.439c0.158-0.115,0.347-0.172,0.558-0.172c0.125,0,0.231,0.014,0.326,0.047
		c0.097,0.028,0.178,0.078,0.238,0.146c0.065,0.063,0.114,0.149,0.146,0.253c0.036,0.104,0.05,0.229,0.05,0.378v2.496h0.651v-2.488
		c0-0.247-0.03-0.461-0.086-0.635C168.925,24.676,168.842,24.532,168.738,24.422 M172.78,24.422
		c-0.105-0.112-0.233-0.193-0.383-0.243c-0.151-0.05-0.318-0.076-0.505-0.076c-0.238,0-0.454,0.048-0.646,0.146
		c-0.192,0.098-0.356,0.229-0.492,0.4l-0.021-0.479h-0.616v3.802h0.646v-2.708c0.093-0.184,0.218-0.328,0.376-0.439
		c0.157-0.115,0.345-0.172,0.558-0.172c0.124,0,0.23,0.014,0.325,0.047c0.095,0.028,0.177,0.078,0.24,0.146
		c0.063,0.063,0.112,0.149,0.146,0.253s0.049,0.229,0.049,0.378v2.496h0.652v-2.488c0-0.247-0.032-0.461-0.088-0.635
		C172.969,24.676,172.884,24.532,172.78,24.422 M176.572,25.729h-1.904c0.021-0.176,0.062-0.331,0.117-0.469
		c0.058-0.136,0.129-0.249,0.217-0.34c0.085-0.093,0.188-0.16,0.296-0.21c0.109-0.047,0.231-0.072,0.361-0.072
		c0.168,0,0.306,0.029,0.418,0.091s0.203,0.14,0.274,0.24c0.07,0.097,0.125,0.208,0.157,0.333c0.034,0.123,0.056,0.249,0.062,0.375
		v0.052H176.572z M177.219,25.971c0-0.269-0.025-0.515-0.09-0.741c-0.059-0.227-0.153-0.426-0.28-0.59
		c-0.131-0.168-0.292-0.298-0.486-0.395c-0.196-0.096-0.433-0.143-0.702-0.143c-0.215,0-0.422,0.043-0.62,0.135
		c-0.201,0.086-0.376,0.217-0.533,0.379c-0.15,0.17-0.274,0.373-0.369,0.615c-0.093,0.244-0.141,0.52-0.141,0.828v0.148
		c0,0.268,0.043,0.516,0.122,0.736c0.084,0.227,0.201,0.42,0.354,0.584c0.151,0.159,0.333,0.289,0.55,0.379
		c0.215,0.092,0.453,0.138,0.721,0.138c0.188,0,0.354-0.021,0.509-0.062c0.15-0.041,0.282-0.094,0.398-0.164
		c0.114-0.068,0.218-0.146,0.304-0.232c0.087-0.09,0.16-0.184,0.221-0.273l-0.396-0.312c-0.119,0.154-0.26,0.279-0.417,0.373
		c-0.161,0.097-0.354,0.143-0.583,0.143c-0.177,0-0.33-0.034-0.465-0.098c-0.141-0.066-0.258-0.155-0.354-0.271
		c-0.096-0.11-0.17-0.243-0.224-0.396c-0.054-0.15-0.083-0.314-0.085-0.492h2.572V25.97L177.219,25.971L177.219,25.971z
		 M153.747,26.12c0,0.188-0.023,0.367-0.069,0.537c-0.047,0.166-0.11,0.313-0.202,0.443c-0.09,0.126-0.199,0.227-0.338,0.305
		c-0.136,0.073-0.293,0.11-0.471,0.11c-0.181,0-0.337-0.037-0.474-0.11c-0.132-0.078-0.246-0.18-0.337-0.305
		c-0.09-0.131-0.156-0.277-0.2-0.443c-0.047-0.17-0.068-0.352-0.068-0.537v-0.078c0-0.189,0.021-0.369,0.068-0.538
		c0.044-0.169,0.106-0.317,0.2-0.445c0.092-0.127,0.202-0.229,0.337-0.31c0.135-0.074,0.289-0.109,0.468-0.109
		c0.18,0,0.339,0.035,0.474,0.109c0.139,0.08,0.25,0.182,0.34,0.31c0.093,0.126,0.156,0.276,0.203,0.445s0.069,0.349,0.069,0.538
		V26.12L153.747,26.12z M153.935,24.657c-0.149-0.17-0.335-0.307-0.55-0.402c-0.214-0.1-0.454-0.15-0.724-0.15
		c-0.265,0-0.504,0.053-0.718,0.15c-0.212,0.098-0.396,0.232-0.543,0.402c-0.148,0.174-0.264,0.381-0.347,0.616
		c-0.082,0.233-0.122,0.489-0.122,0.769v0.078c0,0.275,0.041,0.529,0.123,0.768c0.082,0.234,0.195,0.438,0.349,0.609
		c0.148,0.174,0.33,0.311,0.544,0.404c0.213,0.098,0.453,0.146,0.719,0.146c0.269,0,0.509-0.049,0.721-0.146
		c0.214-0.096,0.396-0.23,0.545-0.404c0.151-0.172,0.268-0.375,0.347-0.609c0.081-0.236,0.121-0.491,0.121-0.768v-0.078
		c0-0.275-0.04-0.533-0.121-0.769S154.084,24.831,153.935,24.657 M149.866,25.716c-0.135-0.126-0.312-0.238-0.521-0.34
		c-0.212-0.101-0.462-0.188-0.751-0.271c-0.211-0.059-0.393-0.117-0.544-0.182c-0.148-0.062-0.271-0.131-0.369-0.207
		c-0.097-0.074-0.167-0.156-0.215-0.247c-0.045-0.09-0.065-0.188-0.065-0.297c0-0.116,0.02-0.228,0.062-0.328
		c0.043-0.101,0.107-0.188,0.194-0.263c0.083-0.073,0.193-0.131,0.331-0.174c0.134-0.043,0.29-0.064,0.47-0.064
		c0.19,0,0.356,0.023,0.498,0.074c0.141,0.052,0.257,0.119,0.351,0.209c0.096,0.088,0.164,0.195,0.209,0.312
		c0.048,0.125,0.068,0.256,0.068,0.399h0.679c0-0.198-0.042-0.394-0.12-0.581c-0.077-0.188-0.193-0.354-0.348-0.496
		c-0.155-0.143-0.345-0.256-0.568-0.344c-0.226-0.09-0.48-0.131-0.769-0.131c-0.263,0-0.503,0.035-0.715,0.105
		s-0.396,0.169-0.55,0.292c-0.15,0.125-0.271,0.272-0.354,0.442c-0.083,0.17-0.125,0.354-0.125,0.557
		c0,0.196,0.039,0.373,0.117,0.527c0.077,0.156,0.188,0.293,0.331,0.414c0.145,0.119,0.32,0.228,0.521,0.32
		c0.207,0.09,0.438,0.176,0.688,0.245c0.242,0.07,0.438,0.142,0.596,0.206c0.156,0.069,0.284,0.141,0.376,0.217
		s0.155,0.159,0.193,0.25c0.035,0.094,0.053,0.197,0.053,0.315c0,0.252-0.095,0.448-0.283,0.594s-0.463,0.22-0.817,0.22
		c-0.165,0-0.324-0.02-0.476-0.061c-0.151-0.039-0.282-0.1-0.4-0.18c-0.116-0.084-0.21-0.188-0.274-0.312
		c-0.072-0.129-0.105-0.275-0.105-0.449h-0.681c0,0.172,0.025,0.324,0.079,0.469c0.052,0.143,0.123,0.271,0.213,0.388
		c0.091,0.116,0.201,0.217,0.322,0.301c0.123,0.086,0.256,0.158,0.399,0.22c0.146,0.06,0.296,0.103,0.45,0.131
		c0.156,0.031,0.313,0.045,0.472,0.045c0.271,0,0.516-0.033,0.73-0.098c0.223-0.062,0.406-0.156,0.562-0.274
		c0.153-0.118,0.274-0.265,0.359-0.433c0.083-0.17,0.125-0.357,0.125-0.566c0-0.198-0.031-0.374-0.101-0.534
		C150.109,25.987,150.005,25.844,149.866,25.716 M160.36,26.12c0,0.188-0.02,0.362-0.059,0.535
		c-0.037,0.164-0.095,0.312-0.176,0.438c-0.08,0.123-0.181,0.223-0.304,0.295c-0.126,0.072-0.275,0.107-0.45,0.107
		c-0.12,0-0.229-0.018-0.324-0.047c-0.098-0.031-0.182-0.072-0.26-0.125c-0.074-0.057-0.144-0.117-0.198-0.191
		c-0.059-0.071-0.106-0.149-0.147-0.235v-1.646c0.039-0.082,0.086-0.161,0.143-0.233c0.056-0.073,0.123-0.135,0.198-0.188
		c0.079-0.054,0.165-0.097,0.26-0.127c0.094-0.029,0.203-0.047,0.321-0.047c0.184,0,0.338,0.039,0.465,0.11
		c0.128,0.073,0.229,0.176,0.308,0.301c0.079,0.128,0.136,0.275,0.17,0.44c0.036,0.171,0.054,0.347,0.054,0.537v0.074h0.001
		L160.36,26.12L160.36,26.12z M160.625,24.641c-0.126-0.169-0.28-0.301-0.464-0.397c-0.186-0.092-0.396-0.139-0.635-0.139
		c-0.241,0-0.45,0.043-0.626,0.126c-0.185,0.083-0.333,0.206-0.458,0.363v-2.017h-0.651l0.002,5.397h0.597l0.03-0.438
		c0.127,0.162,0.281,0.287,0.464,0.377c0.186,0.088,0.399,0.131,0.65,0.131c0.23,0,0.441-0.045,0.625-0.146
		c0.184-0.095,0.339-0.229,0.466-0.397c0.125-0.174,0.221-0.377,0.286-0.613c0.063-0.234,0.1-0.492,0.1-0.771v-0.074
		c0-0.288-0.034-0.555-0.1-0.793C160.846,25.012,160.75,24.812,160.625,24.641 M144.623,15.911c-0.015,0.479-0.147,0.83-0.395,1.053
		c-0.25,0.221-0.609,0.334-1.078,0.334c-0.279,0-0.518-0.049-0.707-0.143c-0.191-0.093-0.35-0.242-0.468-0.445
		c-0.115-0.203-0.204-0.463-0.259-0.782c-0.054-0.319-0.082-0.703-0.082-1.153v-0.47c0-0.45,0.031-0.835,0.091-1.155
		c0.062-0.32,0.152-0.583,0.275-0.783c0.124-0.201,0.28-0.35,0.466-0.441c0.188-0.094,0.406-0.143,0.657-0.143
		c0.274,0,0.5,0.035,0.685,0.094c0.188,0.062,0.342,0.154,0.463,0.274c0.119,0.121,0.21,0.271,0.265,0.455
		c0.06,0.183,0.089,0.394,0.095,0.629h2.041c-0.041-0.438-0.144-0.845-0.312-1.218c-0.165-0.371-0.396-0.693-0.691-0.964
		c-0.296-0.271-0.655-0.483-1.082-0.638c-0.423-0.152-0.911-0.231-1.461-0.231c-0.542,0-1.028,0.099-1.468,0.289
		c-0.439,0.192-0.812,0.466-1.125,0.825c-0.313,0.357-0.553,0.79-0.726,1.3c-0.168,0.509-0.25,1.084-0.25,1.722v0.457
		c0,0.637,0.082,1.211,0.243,1.721c0.159,0.51,0.396,0.94,0.703,1.298c0.31,0.354,0.686,0.628,1.129,0.817
		c0.444,0.189,0.949,0.283,1.517,0.283c0.522,0,0.996-0.072,1.42-0.218c0.422-0.146,0.787-0.349,1.089-0.611
		c0.301-0.262,0.537-0.575,0.707-0.942c0.171-0.364,0.269-0.771,0.287-1.213H144.623L144.623,15.911L144.623,15.911z M143.63,22.585
		h-0.786l-0.68,1.035h0.522L143.63,22.585z M156.833,24.104c-0.213,0-0.39,0.047-0.538,0.135c-0.145,0.094-0.269,0.219-0.368,0.377
		l-0.011-0.441h-0.633v3.803h0.647V25.28c0.07-0.164,0.179-0.299,0.317-0.397c0.144-0.099,0.326-0.146,0.55-0.146
		c0.062,0,0.117,0,0.163,0.004c0.049,0.004,0.102,0.01,0.157,0.021v-0.606c-0.023-0.01-0.066-0.021-0.126-0.031
		C156.933,24.108,156.881,24.104,156.833,24.104 M121.341,27.977h0.65v-3.804h-0.651L121.341,27.977z M119.179,35.024
		c-0.035,0.073-0.084,0.143-0.146,0.211c-0.062,0.068-0.135,0.131-0.22,0.18c-0.083,0.056-0.181,0.099-0.281,0.131
		c-0.104,0.033-0.214,0.05-0.329,0.05c-0.12,0-0.225-0.019-0.314-0.051c-0.091-0.032-0.168-0.08-0.229-0.138
		c-0.063-0.057-0.109-0.125-0.143-0.205c-0.027-0.08-0.045-0.166-0.045-0.256c0-0.232,0.104-0.41,0.304-0.522
		c0.202-0.115,0.486-0.177,0.858-0.177h0.543L119.179,35.024L119.179,35.024z M119.83,35.26v-1.767c0-0.215-0.038-0.4-0.108-0.562
		c-0.068-0.156-0.167-0.291-0.292-0.396c-0.123-0.105-0.271-0.185-0.444-0.237c-0.178-0.052-0.365-0.079-0.571-0.079
		c-0.229,0-0.438,0.031-0.623,0.102c-0.186,0.064-0.345,0.152-0.478,0.256c-0.133,0.107-0.23,0.229-0.303,0.361
		c-0.071,0.135-0.107,0.27-0.107,0.403h0.65c0-0.08,0.021-0.153,0.062-0.228c0.039-0.072,0.094-0.138,0.165-0.19
		c0.069-0.058,0.156-0.101,0.257-0.132c0.102-0.032,0.211-0.049,0.335-0.049c0.264,0,0.465,0.062,0.602,0.198
		c0.137,0.138,0.204,0.317,0.204,0.543v0.302h-0.646c-0.261,0-0.494,0.023-0.708,0.082c-0.208,0.055-0.393,0.131-0.538,0.235
		c-0.149,0.106-0.264,0.236-0.342,0.394c-0.082,0.158-0.12,0.336-0.12,0.541c0,0.153,0.029,0.302,0.09,0.44
		c0.061,0.136,0.148,0.256,0.259,0.354c0.11,0.102,0.247,0.182,0.403,0.238c0.158,0.059,0.334,0.088,0.528,0.088
		c0.115,0,0.229-0.014,0.334-0.037c0.104-0.023,0.202-0.059,0.293-0.104c0.093-0.044,0.176-0.094,0.251-0.15
		c0.074-0.056,0.144-0.119,0.205-0.181c0.009,0.077,0.02,0.151,0.033,0.224c0.016,0.069,0.033,0.131,0.058,0.179h0.682V36.03
		c-0.045-0.104-0.077-0.227-0.1-0.367C119.838,35.523,119.83,35.388,119.83,35.26 M115.404,32.944
		c-0.044,0.12-0.109,0.223-0.2,0.312c-0.09,0.086-0.204,0.154-0.347,0.203c-0.146,0.051-0.312,0.074-0.512,0.074h-1.211V31.53h1.211
		c0.197,0,0.365,0.025,0.512,0.082c0.143,0.06,0.256,0.133,0.347,0.228s0.156,0.202,0.2,0.325c0.041,0.119,0.062,0.25,0.062,0.379
		C115.466,32.69,115.447,32.821,115.404,32.944 M115.679,31.417c-0.15-0.143-0.338-0.25-0.561-0.326
		c-0.223-0.079-0.479-0.117-0.771-0.117h-1.887v5.116h0.677v-2.001h1.211c0.291,0,0.551-0.034,0.771-0.104
		c0.224-0.067,0.409-0.169,0.56-0.301c0.152-0.13,0.27-0.292,0.347-0.487c0.08-0.189,0.115-0.414,0.115-0.658
		c0-0.226-0.039-0.436-0.115-0.627C115.946,31.72,115.828,31.554,115.679,31.417 M131.149,25.278
		c0.066-0.166,0.177-0.299,0.315-0.396c0.146-0.099,0.325-0.147,0.551-0.147c0.062,0,0.114,0,0.164,0.006
		c0.046,0.004,0.101,0.01,0.155,0.02v-0.604c-0.025-0.016-0.068-0.023-0.127-0.035c-0.062-0.014-0.115-0.019-0.16-0.019
		c-0.213,0-0.392,0.047-0.54,0.136c-0.146,0.094-0.271,0.219-0.369,0.377l-0.013-0.441h-0.63v3.804h0.646L131.149,25.278z
		 M115.529,26.327c0,0.197-0.026,0.371-0.083,0.518c-0.058,0.146-0.138,0.271-0.238,0.361c-0.105,0.101-0.228,0.173-0.373,0.221
		c-0.146,0.045-0.307,0.068-0.485,0.068c-0.176,0-0.335-0.023-0.479-0.068c-0.148-0.051-0.271-0.12-0.371-0.221
		c-0.103-0.094-0.185-0.217-0.242-0.361c-0.059-0.146-0.086-0.32-0.086-0.518v-3.468h-0.667v3.468c0,0.283,0.048,0.539,0.145,0.754
		c0.097,0.217,0.227,0.395,0.389,0.539c0.167,0.143,0.363,0.25,0.586,0.32c0.226,0.07,0.467,0.106,0.728,0.106
		c0.249,0,0.483-0.036,0.709-0.106c0.229-0.07,0.425-0.18,0.596-0.32c0.168-0.146,0.305-0.322,0.403-0.539
		c0.104-0.215,0.151-0.471,0.151-0.754v-3.468h-0.68L115.529,26.327L115.529,26.327z M121.671,23.536
		c0.129,0,0.226-0.035,0.287-0.104c0.067-0.071,0.099-0.16,0.099-0.265c0-0.106-0.029-0.194-0.099-0.27
		c-0.062-0.072-0.158-0.107-0.287-0.107c-0.127,0-0.221,0.035-0.288,0.107c-0.062,0.073-0.094,0.161-0.094,0.27
		c0,0.104,0.032,0.191,0.094,0.265C121.449,23.499,121.544,23.536,121.671,23.536 M113.365,18.114
		c0.293,0.256,0.646,0.451,1.057,0.584c0.411,0.131,0.865,0.197,1.362,0.197c0.5,0,0.953-0.066,1.364-0.197
		c0.407-0.134,0.761-0.328,1.05-0.584c0.292-0.259,0.517-0.578,0.676-0.959c0.159-0.379,0.24-0.817,0.24-1.312v-5.538h-2.045v5.538
		c0,0.522-0.107,0.897-0.324,1.132c-0.216,0.23-0.537,0.352-0.96,0.352c-0.417,0-0.733-0.117-0.958-0.352
		c-0.224-0.23-0.334-0.609-0.334-1.132v-5.538h-2.056v5.538c0,0.494,0.083,0.935,0.244,1.312
		C112.845,17.536,113.073,17.855,113.365,18.114 M125.94,9.767c-0.092,0.074-0.203,0.134-0.346,0.18
		c-0.137,0.043-0.302,0.065-0.496,0.065c-0.238,0-0.449-0.022-0.636-0.065c-0.185-0.045-0.342-0.119-0.472-0.225
		c-0.125-0.107-0.227-0.244-0.289-0.41c-0.065-0.169-0.099-0.378-0.099-0.625h-2.051c0,0.332,0.047,0.637,0.146,0.906
		c0.094,0.273,0.224,0.515,0.391,0.729c0.162,0.215,0.356,0.397,0.585,0.551c0.229,0.154,0.475,0.281,0.734,0.382
		c0.262,0.103,0.535,0.177,0.824,0.224c0.284,0.048,0.573,0.072,0.863,0.072c0.474,0,0.901-0.053,1.289-0.158
		c0.389-0.104,0.719-0.257,0.988-0.46c0.273-0.2,0.484-0.452,0.636-0.748c0.149-0.296,0.225-0.635,0.225-1.017
		c0-0.358-0.062-0.676-0.188-0.961c-0.126-0.28-0.312-0.536-0.555-0.762c-0.242-0.226-0.539-0.424-0.895-0.601
		c-0.354-0.172-0.753-0.332-1.203-0.477c-0.239-0.076-0.456-0.154-0.648-0.234c-0.191-0.08-0.354-0.165-0.488-0.255
		c-0.133-0.093-0.233-0.189-0.309-0.29c-0.071-0.104-0.108-0.22-0.108-0.346c0-0.116,0.025-0.228,0.076-0.331
		c0.049-0.104,0.125-0.194,0.225-0.274c0.101-0.079,0.225-0.141,0.37-0.187c0.148-0.044,0.318-0.066,0.514-0.066
		c0.197,0,0.37,0.027,0.516,0.083c0.146,0.054,0.269,0.129,0.367,0.224c0.099,0.097,0.172,0.208,0.22,0.344
		c0.051,0.133,0.074,0.28,0.074,0.439h2.035c0-0.401-0.078-0.762-0.235-1.085c-0.155-0.324-0.374-0.6-0.652-0.831
		c-0.276-0.229-0.611-0.403-1.003-0.529c-0.388-0.123-0.812-0.186-1.271-0.186c-0.471,0-0.902,0.055-1.301,0.167
		c-0.397,0.113-0.74,0.273-1.032,0.479c-0.292,0.204-0.521,0.453-0.686,0.747c-0.158,0.293-0.243,0.622-0.243,0.987
		c0,0.379,0.083,0.711,0.242,0.996s0.375,0.534,0.644,0.749c0.27,0.214,0.575,0.398,0.919,0.553
		c0.347,0.155,0.706,0.295,1.078,0.419c0.316,0.104,0.577,0.203,0.769,0.298c0.199,0.092,0.354,0.188,0.46,0.283
		c0.107,0.094,0.183,0.195,0.218,0.303c0.037,0.105,0.058,0.226,0.058,0.355c0,0.113-0.021,0.219-0.062,0.32
		C126.091,9.602,126.029,9.691,125.94,9.767 M133.131,11.885h1.336c0.216,0,0.398,0.034,0.552,0.104
		c0.151,0.072,0.278,0.17,0.38,0.289c0.099,0.12,0.171,0.258,0.218,0.418c0.047,0.154,0.066,0.319,0.066,0.494
		c0,0.163-0.021,0.314-0.066,0.453c-0.049,0.145-0.119,0.262-0.218,0.363c-0.102,0.1-0.229,0.179-0.38,0.234
		c-0.152,0.058-0.337,0.084-0.552,0.084h-1.336V11.885z M133.131,15.905h1.336c0.514,0,0.968-0.065,1.375-0.197
		c0.408-0.129,0.753-0.312,1.037-0.551c0.282-0.237,0.5-0.522,0.652-0.856c0.148-0.332,0.227-0.706,0.227-1.118
		c0-0.415-0.077-0.798-0.227-1.148c-0.152-0.353-0.37-0.656-0.652-0.912c-0.284-0.256-0.629-0.455-1.037-0.6
		c-0.407-0.146-0.862-0.217-1.375-0.217h-3.38v8.475h2.043L133.131,15.905L133.131,15.905L133.131,15.905z M121.917,15.561h5.958
		v-1.715h-5.958V15.561z M123.814,30.903c-0.13,0-0.224,0.036-0.287,0.107c-0.063,0.074-0.099,0.161-0.099,0.266
		c0,0.109,0.033,0.195,0.099,0.269c0.063,0.067,0.157,0.104,0.287,0.104c0.124,0,0.222-0.037,0.284-0.104
		c0.066-0.071,0.101-0.156,0.101-0.269c0-0.104-0.032-0.191-0.101-0.266C124.033,30.94,123.938,30.903,123.814,30.903
		 M125.299,24.173l-0.94,2.922l-0.968-2.922h-0.661l1.377,3.804h0.493l1.363-3.804H125.299z M127.774,34.316
		c-0.112-0.089-0.252-0.168-0.426-0.235c-0.171-0.068-0.373-0.129-0.604-0.182c-0.18-0.043-0.328-0.082-0.441-0.119
		c-0.11-0.037-0.203-0.082-0.27-0.127c-0.064-0.047-0.108-0.098-0.132-0.152c-0.022-0.057-0.034-0.117-0.034-0.188
		s0.013-0.141,0.04-0.206c0.026-0.065,0.074-0.127,0.134-0.181c0.059-0.051,0.14-0.094,0.233-0.126
		c0.094-0.03,0.208-0.05,0.347-0.05c0.129,0,0.242,0.021,0.341,0.059c0.098,0.039,0.184,0.094,0.25,0.153
		c0.066,0.062,0.117,0.131,0.155,0.21c0.036,0.078,0.053,0.156,0.053,0.234h0.653c0-0.164-0.032-0.317-0.101-0.463
		c-0.064-0.146-0.158-0.271-0.282-0.38c-0.126-0.106-0.278-0.192-0.458-0.254c-0.182-0.062-0.385-0.093-0.611-0.093
		c-0.213,0-0.404,0.027-0.579,0.09c-0.173,0.061-0.321,0.141-0.442,0.241c-0.121,0.104-0.217,0.22-0.282,0.354
		s-0.101,0.276-0.101,0.428c0,0.154,0.033,0.293,0.096,0.41c0.062,0.116,0.15,0.219,0.271,0.305c0.117,0.085,0.262,0.158,0.43,0.219
		c0.168,0.062,0.358,0.113,0.57,0.158c0.188,0.037,0.338,0.084,0.452,0.131s0.203,0.1,0.264,0.15
		c0.062,0.057,0.104,0.113,0.127,0.178c0.021,0.062,0.031,0.129,0.031,0.197c0,0.078-0.017,0.151-0.055,0.218
		c-0.034,0.067-0.085,0.128-0.154,0.175c-0.069,0.05-0.153,0.087-0.255,0.117c-0.101,0.027-0.217,0.04-0.353,0.04
		c-0.104,0-0.206-0.013-0.309-0.035c-0.104-0.022-0.2-0.062-0.286-0.118c-0.085-0.061-0.155-0.132-0.217-0.22
		c-0.056-0.091-0.088-0.203-0.096-0.335h-0.649c0,0.152,0.035,0.309,0.104,0.457c0.065,0.15,0.165,0.279,0.299,0.396
		c0.13,0.117,0.293,0.209,0.484,0.281c0.193,0.069,0.416,0.104,0.671,0.104c0.22,0,0.42-0.027,0.601-0.084
		c0.182-0.055,0.336-0.131,0.465-0.229c0.128-0.1,0.229-0.217,0.295-0.354c0.07-0.14,0.107-0.293,0.107-0.457
		c0-0.155-0.03-0.291-0.084-0.407C127.972,34.512,127.885,34.407,127.774,34.316 M129.026,25.729h-1.903
		c0.02-0.176,0.06-0.331,0.115-0.469c0.058-0.136,0.131-0.249,0.216-0.34c0.088-0.093,0.185-0.16,0.296-0.21
		c0.11-0.047,0.229-0.072,0.362-0.072c0.168,0,0.307,0.029,0.418,0.091s0.203,0.14,0.273,0.24c0.072,0.097,0.125,0.208,0.159,0.333
		c0.033,0.123,0.054,0.249,0.062,0.377L129.026,25.729L129.026,25.729z M129.302,24.64c-0.129-0.168-0.29-0.298-0.486-0.395
		c-0.195-0.096-0.432-0.144-0.702-0.144c-0.215,0-0.421,0.044-0.621,0.133s-0.376,0.22-0.531,0.382
		c-0.154,0.168-0.277,0.371-0.37,0.611c-0.092,0.248-0.138,0.521-0.138,0.831v0.147c0,0.27,0.039,0.515,0.121,0.738
		c0.083,0.227,0.198,0.418,0.352,0.582c0.152,0.16,0.336,0.288,0.549,0.381c0.219,0.092,0.454,0.138,0.722,0.138
		c0.188,0,0.354-0.021,0.509-0.062c0.151-0.041,0.282-0.097,0.396-0.168c0.117-0.066,0.219-0.146,0.306-0.23
		c0.086-0.09,0.159-0.182,0.222-0.272l-0.396-0.312c-0.119,0.154-0.26,0.281-0.417,0.375c-0.161,0.094-0.354,0.141-0.583,0.141
		c-0.178,0-0.328-0.035-0.468-0.102c-0.138-0.062-0.253-0.153-0.352-0.267c-0.098-0.11-0.172-0.243-0.225-0.396
		c-0.054-0.152-0.083-0.315-0.086-0.492h2.575v-0.29c0-0.269-0.03-0.517-0.091-0.741C129.522,25.001,129.427,24.804,129.302,24.64
		 M123.482,36.089h0.647v-3.803h-0.647V36.089z M122.469,32.218c-0.211,0-0.39,0.045-0.539,0.137
		c-0.146,0.09-0.271,0.217-0.366,0.374l-0.015-0.44h-0.63v3.802h0.648v-2.698c0.07-0.166,0.178-0.298,0.316-0.398
		c0.146-0.097,0.326-0.146,0.55-0.146c0.062,0,0.117,0,0.164,0.005c0.051,0.003,0.103,0.012,0.158,0.02v-0.604
		c-0.023-0.011-0.063-0.021-0.127-0.03C122.571,32.223,122.515,32.218,122.469,32.218 M119.902,24.422
		c-0.104-0.112-0.234-0.193-0.385-0.243c-0.147-0.05-0.314-0.076-0.501-0.076c-0.238,0-0.453,0.048-0.646,0.146
		c-0.191,0.098-0.355,0.229-0.492,0.4l-0.02-0.479h-0.617v3.803h0.647v-2.71c0.091-0.185,0.216-0.328,0.374-0.44
		c0.159-0.113,0.347-0.17,0.559-0.17c0.123,0,0.23,0.014,0.326,0.045c0.096,0.029,0.177,0.077,0.238,0.146
		c0.064,0.063,0.112,0.147,0.147,0.253c0.03,0.104,0.048,0.23,0.048,0.378v2.498h0.65v-2.49c0-0.248-0.029-0.46-0.085-0.635
		C120.089,24.676,120.009,24.532,119.902,24.422"/>
	<polygon points="37.238,9.528 33.26,9.528 33.26,13.638 31.189,13.638 31.189,3.583 37.736,3.583 37.736,5.261 33.26,5.261 
		33.26,7.857 37.238,7.857 	"/>
	<path d="M42.014,13.775c-0.58,0-1.101-0.095-1.559-0.282c-0.457-0.188-0.845-0.446-1.167-0.774
		c-0.319-0.325-0.563-0.709-0.732-1.147c-0.168-0.438-0.251-0.91-0.251-1.41V9.89c0-0.568,0.081-1.085,0.244-1.561
		c0.165-0.472,0.397-0.877,0.696-1.217c0.303-0.341,0.668-0.606,1.098-0.801c0.433-0.189,0.916-0.283,1.447-0.283
		c0.539,0,1.014,0.087,1.424,0.266s0.752,0.425,1.031,0.746c0.279,0.322,0.488,0.705,0.629,1.158
		c0.141,0.449,0.211,0.952,0.211,1.504v0.851h-4.758c0.032,0.243,0.098,0.465,0.198,0.663c0.099,0.199,0.225,0.367,0.379,0.508
		c0.152,0.143,0.334,0.25,0.541,0.332c0.208,0.076,0.438,0.116,0.697,0.116c0.363,0,0.7-0.066,1.009-0.204
		c0.308-0.135,0.572-0.346,0.796-0.633l0.979,1.1c-0.12,0.168-0.27,0.336-0.447,0.497c-0.182,0.161-0.395,0.308-0.638,0.433
		c-0.245,0.125-0.519,0.228-0.825,0.303C42.713,13.737,42.378,13.775,42.014,13.775 M41.785,7.642c-0.216,0-0.405,0.038-0.569,0.115
		c-0.163,0.076-0.305,0.181-0.42,0.316c-0.119,0.135-0.214,0.299-0.287,0.486c-0.074,0.188-0.126,0.398-0.157,0.629h2.775V9.03
		c-0.005-0.197-0.033-0.384-0.086-0.553c-0.052-0.168-0.134-0.314-0.243-0.439c-0.106-0.127-0.246-0.222-0.414-0.291
		C42.215,7.677,42.014,7.642,41.785,7.642"/>
	<rect x="46.377" y="8.987" width="5.558" height="1.607"/>
	<path d="M50.259,5.547c0-0.108-0.021-0.204-0.062-0.291c-0.043-0.087-0.119-0.171-0.235-0.247
		c-0.114-0.076-0.271-0.146-0.468-0.215c-0.199-0.071-0.454-0.138-0.769-0.202c-0.381-0.082-0.732-0.187-1.059-0.311
		s-0.604-0.279-0.842-0.462c-0.235-0.186-0.423-0.399-0.558-0.644c-0.134-0.243-0.198-0.526-0.198-0.85
		c0-0.313,0.067-0.609,0.204-0.889c0.135-0.282,0.329-0.529,0.587-0.743c0.255-0.215,0.566-0.384,0.938-0.509
		c0.371-0.124,0.789-0.187,1.254-0.187c0.484,0,0.919,0.06,1.307,0.178c0.387,0.119,0.714,0.286,0.982,0.5
		c0.271,0.213,0.479,0.471,0.622,0.764c0.146,0.296,0.216,0.62,0.216,0.968h-1.995c0-0.285-0.092-0.521-0.274-0.709
		c-0.186-0.185-0.474-0.278-0.863-0.278c-0.337,0-0.596,0.075-0.781,0.226C48.082,1.8,47.99,1.996,47.99,2.229
		c0,0.108,0.021,0.207,0.068,0.291c0.05,0.085,0.128,0.166,0.237,0.236c0.107,0.07,0.25,0.136,0.427,0.198
		c0.18,0.06,0.396,0.115,0.652,0.167c0.405,0.076,0.781,0.173,1.125,0.287c0.346,0.116,0.643,0.264,0.894,0.447
		c0.253,0.181,0.449,0.4,0.593,0.661C52.128,4.778,52.2,5.092,52.2,5.461c0,0.332-0.072,0.637-0.221,0.915
		c-0.147,0.279-0.358,0.519-0.634,0.721c-0.272,0.202-0.604,0.363-0.99,0.477c-0.388,0.116-0.818,0.172-1.299,0.172
		c-0.522,0-0.986-0.071-1.387-0.219c-0.401-0.146-0.738-0.342-1.012-0.582c-0.274-0.24-0.479-0.509-0.617-0.807
		s-0.207-0.6-0.207-0.905h1.892c0.012,0.194,0.054,0.359,0.129,0.501c0.074,0.143,0.178,0.255,0.302,0.342
		c0.124,0.089,0.267,0.153,0.43,0.193c0.164,0.039,0.336,0.062,0.515,0.062c0.385,0,0.674-0.071,0.866-0.217
		C50.161,5.972,50.259,5.783,50.259,5.547"/>
	<path d="M56.1,4.325v1.836h1.277v1.463H56.1v3.729c0,0.155,0.019,0.283,0.052,0.387c0.028,0.102,0.08,0.181,0.144,0.238
		c0.066,0.059,0.146,0.098,0.238,0.116c0.095,0.021,0.206,0.03,0.333,0.03c0.119,0,0.229-0.004,0.33-0.014
		c0.098-0.008,0.185-0.021,0.259-0.035v1.516c-0.166,0.048-0.348,0.091-0.542,0.125c-0.195,0.035-0.417,0.052-0.667,0.052
		c-0.327,0-0.622-0.04-0.883-0.12c-0.266-0.081-0.487-0.208-0.675-0.385c-0.188-0.171-0.33-0.398-0.432-0.682
		c-0.103-0.28-0.151-0.619-0.151-1.016V7.622h-1.092V6.161h1.092V4.325H56.1L56.1,4.325z"/>
	<path d="M58.641,4.227c0-0.299,0.102-0.545,0.302-0.737c0.198-0.194,0.472-0.29,0.816-0.29c0.17,0,0.325,0.022,0.463,0.073
		c0.141,0.052,0.254,0.122,0.354,0.216c0.097,0.091,0.171,0.199,0.225,0.325c0.052,0.126,0.079,0.265,0.079,0.412
		c0,0.152-0.026,0.291-0.079,0.419c-0.054,0.125-0.128,0.234-0.225,0.327c-0.099,0.092-0.212,0.163-0.354,0.214
		c-0.137,0.051-0.293,0.077-0.463,0.077c-0.171,0-0.324-0.025-0.464-0.077c-0.137-0.051-0.254-0.122-0.351-0.214
		c-0.099-0.092-0.171-0.201-0.229-0.327C58.668,4.518,58.641,4.379,58.641,4.227 M60.76,13.632h-2.003v-7.47h2.003V13.632z"/>
	<polygon points="65.201,11.196 66.59,6.161 68.674,6.161 66.154,13.632 64.248,13.632 61.727,6.161 63.814,6.161 	"/>
	<path d="M73.764,13.632c-0.093-0.178-0.158-0.401-0.2-0.67c-0.203,0.227-0.458,0.418-0.764,0.574
		c-0.307,0.154-0.681,0.231-1.121,0.231c-0.358,0-0.694-0.055-1.004-0.165c-0.312-0.109-0.582-0.264-0.81-0.461
		c-0.229-0.2-0.406-0.438-0.534-0.712c-0.13-0.271-0.193-0.572-0.193-0.899c0-0.391,0.072-0.74,0.219-1.043
		c0.146-0.305,0.362-0.562,0.651-0.771c0.291-0.212,0.65-0.374,1.083-0.482c0.431-0.109,0.931-0.167,1.501-0.167h0.892V8.639
		c0-0.345-0.087-0.622-0.268-0.828c-0.177-0.208-0.457-0.312-0.84-0.312c-0.334,0-0.599,0.08-0.789,0.242
		C71.397,7.9,71.3,8.122,71.3,8.403h-1.996c0-0.322,0.075-0.63,0.227-0.92c0.147-0.287,0.361-0.543,0.64-0.758
		c0.276-0.217,0.609-0.389,1-0.515c0.395-0.125,0.828-0.188,1.312-0.188c0.433,0,0.833,0.055,1.2,0.167
		c0.368,0.11,0.686,0.274,0.951,0.492c0.27,0.218,0.479,0.492,0.625,0.824c0.15,0.327,0.226,0.71,0.226,1.147v3.162
		c0,0.211,0.008,0.401,0.021,0.568c0.015,0.17,0.033,0.32,0.054,0.456c0.024,0.136,0.056,0.257,0.093,0.366
		c0.034,0.106,0.08,0.211,0.131,0.306v0.119L73.764,13.632L73.764,13.632L73.764,13.632z M72.115,12.243
		c0.168,0,0.327-0.021,0.473-0.062s0.275-0.095,0.389-0.164c0.117-0.063,0.218-0.144,0.303-0.229
		c0.084-0.086,0.152-0.179,0.204-0.269v-1.285h-0.82c-0.264,0-0.492,0.028-0.686,0.087c-0.192,0.059-0.352,0.137-0.479,0.241
		c-0.123,0.103-0.215,0.224-0.275,0.364c-0.06,0.143-0.089,0.294-0.089,0.46c0,0.248,0.085,0.454,0.262,0.614
		C71.571,12.163,71.809,12.243,72.115,12.243"/>
	<rect x="77.119" y="3.027" width="2.002" height="10.604"/>
	<path d="M30.762,22.458c0-0.563,0.064-1.084,0.197-1.551c0.132-0.473,0.32-0.873,0.57-1.211c0.25-0.334,0.554-0.596,0.918-0.781
		c0.362-0.185,0.778-0.275,1.243-0.275c0.384,0,0.722,0.074,1.02,0.217c0.297,0.141,0.558,0.344,0.784,0.6v-3.812h2v10.61h-1.8
		l-0.098-0.799c-0.234,0.295-0.51,0.524-0.818,0.688c-0.316,0.164-0.684,0.246-1.102,0.246c-0.461,0-0.871-0.096-1.231-0.286
		c-0.361-0.189-0.666-0.455-0.915-0.791c-0.25-0.334-0.438-0.732-0.57-1.197c-0.133-0.461-0.197-0.967-0.197-1.512L30.762,22.458
		L30.762,22.458z M32.759,22.604c0,0.307,0.025,0.587,0.075,0.85c0.051,0.266,0.133,0.494,0.246,0.688
		c0.113,0.197,0.26,0.351,0.441,0.461c0.182,0.115,0.401,0.172,0.667,0.172c0.321,0,0.589-0.067,0.805-0.208
		c0.214-0.137,0.382-0.326,0.501-0.57v-2.949c-0.119-0.25-0.287-0.44-0.501-0.575c-0.215-0.138-0.479-0.205-0.792-0.205
		c-0.266,0-0.485,0.056-0.67,0.168c-0.186,0.112-0.333,0.267-0.445,0.466c-0.112,0.198-0.197,0.43-0.25,0.695
		c-0.052,0.268-0.079,0.557-0.079,0.863v0.146L32.759,22.604L32.759,22.604z"/>
	<path d="M42.35,26.39c-0.578,0-1.098-0.093-1.557-0.284c-0.457-0.185-0.847-0.446-1.166-0.772
		c-0.321-0.324-0.562-0.711-0.729-1.148c-0.17-0.438-0.254-0.91-0.254-1.413v-0.271c0-0.565,0.082-1.086,0.244-1.557
		c0.163-0.473,0.396-0.88,0.698-1.22c0.3-0.342,0.668-0.604,1.098-0.798c0.433-0.189,0.914-0.288,1.445-0.288
		c0.541,0,1.018,0.089,1.425,0.269c0.409,0.176,0.752,0.426,1.032,0.746c0.279,0.319,0.488,0.705,0.629,1.156
		c0.142,0.449,0.21,0.952,0.21,1.504v0.85h-4.758c0.033,0.244,0.098,0.468,0.197,0.662c0.1,0.198,0.226,0.367,0.38,0.508
		c0.154,0.143,0.335,0.25,0.542,0.328c0.208,0.08,0.438,0.117,0.698,0.117c0.362,0,0.698-0.064,1.009-0.203
		c0.309-0.137,0.573-0.348,0.794-0.633l0.979,1.1c-0.117,0.171-0.267,0.337-0.446,0.496c-0.181,0.162-0.393,0.307-0.638,0.435
		c-0.241,0.126-0.517,0.228-0.822,0.303C43.049,26.353,42.715,26.39,42.35,26.39 M42.124,20.259c-0.217,0-0.406,0.037-0.57,0.113
		c-0.163,0.074-0.303,0.183-0.421,0.314c-0.117,0.139-0.213,0.301-0.286,0.487c-0.072,0.188-0.126,0.399-0.16,0.631h2.775v-0.16
		c-0.004-0.196-0.033-0.382-0.085-0.553c-0.053-0.168-0.134-0.317-0.242-0.441c-0.106-0.122-0.247-0.222-0.414-0.288
		C42.552,20.292,42.353,20.259,42.124,20.259"/>
	<path d="M50.787,24.19c0-0.105-0.021-0.201-0.062-0.291c-0.043-0.086-0.121-0.166-0.231-0.244c-0.117-0.076-0.274-0.146-0.47-0.218
		c-0.198-0.069-0.454-0.134-0.767-0.2c-0.384-0.084-0.737-0.184-1.062-0.312c-0.324-0.123-0.605-0.277-0.843-0.461
		c-0.236-0.185-0.423-0.398-0.557-0.642c-0.133-0.246-0.2-0.527-0.2-0.854c0-0.312,0.066-0.607,0.203-0.891
		c0.135-0.279,0.333-0.528,0.586-0.74c0.256-0.219,0.568-0.387,0.939-0.508c0.371-0.125,0.788-0.188,1.252-0.188
		c0.482,0,0.918,0.061,1.306,0.18c0.386,0.119,0.714,0.287,0.984,0.5c0.269,0.213,0.477,0.467,0.62,0.765
		c0.146,0.295,0.219,0.614,0.219,0.967H50.71c0-0.286-0.093-0.521-0.277-0.708c-0.184-0.186-0.472-0.281-0.861-0.281
		c-0.334,0-0.598,0.077-0.779,0.229c-0.183,0.154-0.277,0.348-0.277,0.58c0,0.111,0.024,0.209,0.072,0.296
		c0.048,0.085,0.127,0.163,0.234,0.233s0.252,0.139,0.429,0.195c0.179,0.061,0.395,0.114,0.653,0.166
		c0.402,0.078,0.778,0.177,1.125,0.29c0.348,0.115,0.643,0.265,0.895,0.444c0.25,0.183,0.45,0.4,0.591,0.662
		c0.145,0.261,0.214,0.574,0.214,0.941c0,0.332-0.07,0.639-0.219,0.916c-0.147,0.277-0.359,0.518-0.633,0.721
		s-0.603,0.361-0.991,0.479c-0.386,0.112-0.817,0.171-1.298,0.171c-0.522,0-0.988-0.07-1.388-0.219
		c-0.4-0.148-0.738-0.344-1.014-0.582c-0.272-0.237-0.479-0.51-0.615-0.807c-0.141-0.299-0.207-0.602-0.207-0.904h1.892
		c0.009,0.191,0.052,0.357,0.127,0.5c0.076,0.144,0.176,0.255,0.3,0.344c0.125,0.088,0.269,0.15,0.434,0.191
		c0.164,0.041,0.336,0.062,0.515,0.062c0.382,0,0.672-0.072,0.866-0.219C50.689,24.618,50.787,24.426,50.787,24.19"/>
	<path d="M57.517,16.846c0-0.3,0.102-0.546,0.301-0.74c0.2-0.192,0.475-0.291,0.819-0.291c0.17,0,0.323,0.027,0.463,0.077
		c0.139,0.051,0.257,0.122,0.353,0.214c0.097,0.095,0.173,0.202,0.226,0.329c0.055,0.127,0.079,0.264,0.079,0.407
		c0,0.153-0.024,0.295-0.079,0.421c-0.052,0.125-0.129,0.234-0.226,0.327c-0.095,0.092-0.214,0.164-0.353,0.215
		c-0.14,0.052-0.292,0.076-0.463,0.076s-0.323-0.024-0.463-0.076c-0.14-0.051-0.256-0.122-0.354-0.215
		c-0.097-0.093-0.17-0.202-0.226-0.327C57.545,17.138,57.517,16.999,57.517,16.846 M59.636,26.251h-2.003v-7.469h2.003V26.251z"/>
	<path d="M60.969,22.458c0-0.563,0.065-1.084,0.197-1.551c0.13-0.473,0.32-0.873,0.57-1.211c0.248-0.334,0.555-0.596,0.917-0.781
		c0.364-0.185,0.778-0.275,1.246-0.275c0.382,0,0.722,0.074,1.017,0.217c0.298,0.141,0.56,0.344,0.784,0.6v-3.812h2.003v10.61
		h-1.801l-0.1-0.799c-0.232,0.295-0.51,0.524-0.82,0.688c-0.312,0.164-0.68,0.246-1.1,0.246c-0.459,0-0.871-0.096-1.23-0.286
		c-0.362-0.189-0.667-0.455-0.914-0.791c-0.25-0.334-0.44-0.732-0.57-1.197c-0.132-0.461-0.197-0.967-0.197-1.512L60.969,22.458
		L60.969,22.458z M62.964,22.604c0,0.307,0.027,0.587,0.076,0.85c0.051,0.266,0.131,0.494,0.245,0.688
		c0.112,0.197,0.261,0.351,0.44,0.461c0.184,0.115,0.404,0.172,0.667,0.172c0.321,0,0.592-0.067,0.805-0.208
		c0.214-0.137,0.381-0.326,0.501-0.57v-2.949c-0.121-0.25-0.287-0.44-0.501-0.575c-0.214-0.138-0.479-0.205-0.79-0.205
		c-0.264,0-0.486,0.056-0.671,0.168c-0.186,0.112-0.333,0.267-0.445,0.466c-0.111,0.198-0.196,0.43-0.248,0.695
		c-0.052,0.268-0.081,0.557-0.081,0.863v0.146L62.964,22.604L62.964,22.604z"/>
	<path d="M72.688,26.39c-0.581,0-1.102-0.093-1.56-0.284c-0.457-0.185-0.847-0.446-1.167-0.772c-0.321-0.324-0.562-0.711-0.73-1.148
		c-0.167-0.438-0.254-0.91-0.254-1.413v-0.271c0-0.564,0.083-1.084,0.245-1.555c0.163-0.474,0.397-0.881,0.698-1.221
		c0.3-0.342,0.668-0.604,1.098-0.798c0.432-0.188,0.912-0.288,1.447-0.288c0.539,0,1.015,0.089,1.423,0.27
		c0.41,0.176,0.752,0.426,1.032,0.746c0.278,0.318,0.487,0.705,0.627,1.155c0.142,0.449,0.211,0.952,0.211,1.504v0.851h-4.757
		c0.031,0.244,0.098,0.467,0.195,0.662c0.101,0.197,0.227,0.367,0.382,0.508c0.154,0.142,0.333,0.25,0.542,0.328
		c0.208,0.08,0.439,0.117,0.697,0.117c0.362,0,0.698-0.065,1.009-0.203c0.309-0.136,0.573-0.349,0.794-0.633l0.979,1.1
		c-0.116,0.17-0.267,0.336-0.445,0.496c-0.182,0.162-0.395,0.306-0.638,0.434c-0.24,0.126-0.518,0.227-0.822,0.303
		C73.385,26.353,73.051,26.39,72.688,26.39 M72.461,20.259c-0.217,0-0.408,0.037-0.57,0.115c-0.164,0.076-0.304,0.181-0.42,0.316
		c-0.117,0.137-0.215,0.299-0.286,0.487c-0.071,0.187-0.13,0.396-0.158,0.628h2.774v-0.156c-0.006-0.199-0.035-0.383-0.086-0.554
		c-0.051-0.17-0.133-0.317-0.242-0.442c-0.107-0.121-0.246-0.221-0.416-0.289C72.889,20.292,72.69,20.259,72.461,20.259
		 M72.639,15.645h2.177l-1.911,2.14h-1.624L72.639,15.645z"/>
	<path d="M80.333,26.39c-0.58,0-1.1-0.093-1.558-0.284c-0.458-0.185-0.848-0.446-1.166-0.772c-0.321-0.324-0.564-0.711-0.732-1.148
		c-0.17-0.438-0.252-0.91-0.252-1.413v-0.271c0-0.565,0.081-1.086,0.245-1.557c0.163-0.473,0.396-0.88,0.697-1.22
		c0.303-0.342,0.668-0.604,1.098-0.798c0.431-0.189,0.913-0.288,1.446-0.288c0.539,0,1.014,0.089,1.421,0.269
		c0.411,0.176,0.754,0.426,1.034,0.746c0.275,0.319,0.486,0.705,0.627,1.156c0.141,0.449,0.213,0.952,0.213,1.504v0.85h-4.758
		c0.031,0.244,0.099,0.468,0.197,0.662c0.098,0.198,0.226,0.367,0.377,0.508c0.155,0.143,0.336,0.25,0.543,0.328
		c0.208,0.08,0.44,0.117,0.698,0.117c0.363,0,0.698-0.064,1.009-0.203c0.311-0.135,0.571-0.348,0.792-0.633l0.981,1.1
		c-0.118,0.171-0.271,0.337-0.448,0.496c-0.181,0.162-0.392,0.307-0.636,0.435c-0.244,0.126-0.521,0.228-0.826,0.303
		C81.03,26.353,80.696,26.39,80.333,26.39 M80.105,20.259c-0.219,0-0.407,0.037-0.57,0.113c-0.162,0.074-0.303,0.183-0.42,0.314
		c-0.117,0.139-0.214,0.301-0.286,0.487c-0.075,0.188-0.127,0.399-0.16,0.631h2.776v-0.16c-0.006-0.196-0.033-0.382-0.086-0.553
		c-0.054-0.168-0.136-0.317-0.242-0.441c-0.108-0.122-0.246-0.222-0.414-0.288C80.533,20.292,80.336,20.259,80.105,20.259"/>
	<path d="M88.741,24.188c0-0.106-0.021-0.204-0.062-0.29c-0.042-0.085-0.119-0.171-0.23-0.244c-0.116-0.078-0.272-0.149-0.473-0.219
		c-0.196-0.066-0.452-0.136-0.767-0.2c-0.383-0.084-0.735-0.188-1.062-0.312c-0.322-0.124-0.605-0.28-0.843-0.465
		c-0.234-0.186-0.421-0.396-0.555-0.645c-0.134-0.242-0.202-0.523-0.202-0.849c0-0.312,0.068-0.609,0.205-0.892
		c0.136-0.278,0.333-0.528,0.587-0.742c0.254-0.213,0.568-0.385,0.939-0.508c0.369-0.125,0.787-0.188,1.252-0.188
		c0.481,0,0.917,0.062,1.305,0.182c0.385,0.118,0.714,0.285,0.985,0.5c0.269,0.213,0.477,0.467,0.619,0.762
		c0.146,0.295,0.218,0.617,0.218,0.967h-1.996c0-0.283-0.091-0.521-0.275-0.708s-0.474-0.28-0.862-0.28
		c-0.334,0-0.598,0.074-0.78,0.229c-0.184,0.151-0.277,0.344-0.277,0.58c0,0.109,0.024,0.207,0.072,0.293
		c0.049,0.084,0.126,0.164,0.236,0.233c0.105,0.07,0.25,0.138,0.427,0.197s0.396,0.112,0.653,0.166
		c0.403,0.075,0.779,0.173,1.124,0.286c0.345,0.117,0.643,0.268,0.894,0.447c0.25,0.184,0.448,0.402,0.59,0.662
		c0.146,0.26,0.215,0.574,0.215,0.941c0,0.334-0.073,0.638-0.221,0.916c-0.148,0.277-0.358,0.518-0.63,0.719
		c-0.276,0.205-0.607,0.363-0.992,0.479c-0.387,0.115-0.817,0.176-1.298,0.176c-0.523,0-0.987-0.076-1.388-0.223
		c-0.4-0.147-0.737-0.342-1.013-0.582c-0.272-0.237-0.479-0.508-0.616-0.809c-0.14-0.299-0.207-0.6-0.207-0.904h1.891
		c0.011,0.195,0.053,0.363,0.128,0.504c0.076,0.139,0.177,0.254,0.301,0.342c0.124,0.086,0.268,0.15,0.431,0.191
		c0.162,0.041,0.336,0.062,0.516,0.062c0.383,0,0.672-0.071,0.868-0.219C88.642,24.609,88.741,24.421,88.741,24.188"/>
	<path d="M33.233,35.924v3.542h-2.071V29.413h3.922c0.593,0,1.125,0.082,1.591,0.25c0.468,0.164,0.863,0.396,1.189,0.691
		s0.569,0.649,0.742,1.057c0.17,0.405,0.254,0.851,0.254,1.33c0,0.485-0.084,0.926-0.254,1.317c-0.173,0.39-0.417,0.726-0.742,1
		c-0.326,0.274-0.722,0.489-1.189,0.64c-0.466,0.148-0.998,0.227-1.591,0.227L33.233,35.924L33.233,35.924z M33.233,34.245h1.85
		c0.295,0,0.549-0.035,0.764-0.109c0.214-0.073,0.391-0.176,0.525-0.307s0.235-0.287,0.301-0.476
		c0.064-0.183,0.095-0.383,0.095-0.603c0-0.215-0.029-0.424-0.095-0.625c-0.063-0.197-0.165-0.377-0.301-0.53
		c-0.136-0.151-0.312-0.276-0.525-0.37c-0.215-0.091-0.468-0.138-0.764-0.138h-1.85V34.245z"/>
	<path d="M44.045,39.466c-0.093-0.178-0.159-0.401-0.201-0.67c-0.202,0.226-0.456,0.416-0.763,0.574
		c-0.306,0.154-0.68,0.231-1.122,0.231c-0.358,0-0.694-0.054-1.004-0.166c-0.312-0.106-0.579-0.264-0.807-0.464
		c-0.229-0.191-0.408-0.434-0.536-0.704c-0.128-0.272-0.193-0.573-0.193-0.901c0-0.396,0.072-0.738,0.218-1.043
		c0.146-0.305,0.362-0.561,0.651-0.774c0.29-0.214,0.65-0.374,1.08-0.482c0.431-0.11,0.932-0.165,1.501-0.165h0.892v-0.43
		c0-0.348-0.09-0.621-0.266-0.831c-0.178-0.204-0.457-0.308-0.841-0.308c-0.334,0-0.601,0.08-0.789,0.244
		c-0.191,0.155-0.286,0.379-0.286,0.66h-1.998c0-0.324,0.075-0.63,0.225-0.918c0.15-0.289,0.362-0.545,0.641-0.762
		c0.275-0.217,0.607-0.388,1.001-0.514c0.392-0.129,0.829-0.189,1.312-0.189c0.436,0,0.834,0.055,1.202,0.166
		c0.369,0.11,0.688,0.274,0.954,0.492c0.267,0.217,0.475,0.49,0.625,0.82c0.15,0.328,0.224,0.713,0.224,1.15v3.161
		c0,0.212,0.008,0.402,0.022,0.569c0.016,0.169,0.033,0.32,0.056,0.453c0.022,0.137,0.052,0.26,0.089,0.369
		c0.038,0.106,0.081,0.209,0.131,0.306v0.116h-2.016L44.045,39.466L44.045,39.466z M42.394,38.077c0.172,0,0.328-0.02,0.474-0.06
		c0.146-0.042,0.275-0.097,0.392-0.163c0.115-0.064,0.216-0.145,0.3-0.23c0.085-0.088,0.153-0.178,0.205-0.27v-1.283h-0.819
		c-0.266,0-0.491,0.027-0.686,0.084c-0.192,0.059-0.354,0.142-0.477,0.242c-0.125,0.104-0.216,0.227-0.277,0.367
		c-0.059,0.139-0.09,0.293-0.09,0.458c0,0.249,0.089,0.454,0.263,0.615C41.85,37.999,42.09,38.077,42.394,38.077"/>
	<path d="M51.497,33.866c-0.104-0.015-0.22-0.024-0.357-0.037c-0.136-0.014-0.255-0.02-0.359-0.02c-0.394,0-0.708,0.066-0.95,0.2
		c-0.242,0.13-0.422,0.321-0.536,0.567v4.889h-1.996v-7.475h1.885l0.058,0.892c0.188-0.321,0.421-0.574,0.695-0.755
		c0.278-0.182,0.601-0.271,0.969-0.271c0.104,0,0.218,0.01,0.333,0.025c0.119,0.018,0.215,0.04,0.287,0.062L51.497,33.866z"/>
	<path d="M52.443,30.062c0-0.301,0.1-0.547,0.301-0.738c0.199-0.192,0.473-0.291,0.816-0.291c0.172,0,0.325,0.025,0.465,0.077
		c0.137,0.05,0.254,0.121,0.351,0.214c0.095,0.094,0.172,0.202,0.224,0.328c0.056,0.125,0.08,0.264,0.08,0.411
		c0,0.151-0.024,0.289-0.08,0.417c-0.052,0.129-0.128,0.236-0.224,0.328c-0.097,0.092-0.214,0.164-0.351,0.216
		c-0.141,0.05-0.293,0.074-0.465,0.074c-0.171,0-0.323-0.022-0.464-0.074c-0.138-0.052-0.255-0.123-0.352-0.216
		c-0.098-0.092-0.172-0.202-0.226-0.328C52.469,30.352,52.443,30.214,52.443,30.062 M54.563,39.466h-2.004v-7.473h2.004V39.466z"/>
	<path d="M60.333,37.407c0-0.104-0.021-0.203-0.061-0.287c-0.042-0.09-0.122-0.172-0.235-0.248c-0.115-0.074-0.271-0.147-0.47-0.217
		c-0.198-0.072-0.453-0.138-0.768-0.203c-0.382-0.084-0.734-0.184-1.061-0.31c-0.324-0.125-0.604-0.278-0.842-0.464
		c-0.238-0.184-0.423-0.396-0.559-0.643c-0.131-0.244-0.198-0.525-0.198-0.851c0-0.312,0.066-0.608,0.203-0.891
		c0.136-0.281,0.333-0.527,0.586-0.741c0.254-0.216,0.567-0.384,0.941-0.509c0.369-0.125,0.786-0.187,1.25-0.187
		c0.483,0,0.919,0.059,1.305,0.18c0.389,0.119,0.716,0.287,0.985,0.502c0.271,0.216,0.477,0.469,0.621,0.763
		c0.146,0.296,0.218,0.617,0.218,0.966h-1.997c0-0.281-0.093-0.521-0.275-0.707c-0.184-0.188-0.473-0.277-0.861-0.277
		c-0.337,0-0.599,0.078-0.782,0.227c-0.184,0.154-0.277,0.346-0.277,0.584c0,0.107,0.024,0.206,0.073,0.29
		c0.048,0.086,0.127,0.165,0.233,0.233c0.106,0.073,0.251,0.14,0.429,0.196c0.177,0.062,0.396,0.117,0.653,0.166
		c0.402,0.078,0.779,0.179,1.126,0.29c0.346,0.116,0.643,0.266,0.895,0.446c0.249,0.182,0.447,0.401,0.588,0.659
		c0.145,0.263,0.214,0.576,0.214,0.945c0,0.33-0.071,0.637-0.22,0.914c-0.146,0.276-0.356,0.521-0.634,0.723
		c-0.271,0.203-0.604,0.359-0.99,0.478c-0.386,0.113-0.816,0.172-1.298,0.172c-0.526,0-0.987-0.071-1.388-0.22
		c-0.401-0.148-0.737-0.343-1.013-0.581c-0.272-0.237-0.479-0.509-0.616-0.81c-0.139-0.299-0.208-0.601-0.208-0.902h1.893
		c0.009,0.189,0.053,0.359,0.129,0.5c0.074,0.143,0.176,0.252,0.299,0.341c0.125,0.09,0.271,0.155,0.435,0.195
		c0.163,0.039,0.334,0.062,0.513,0.062c0.383,0,0.671-0.074,0.868-0.22C60.234,37.831,60.333,37.641,60.333,37.407"/>
	<rect x="101.176" y="2.843" width="0.392" height="36.623"/>
	<g>
		<path d="M8.808,23.064c-0.885-0.067-1.766-0.196-2.607-0.485c-3.196-1.1-5.332-3.194-6.021-6.568
			c-0.443-2.18-0.036-4.273,0.936-6.253C2.665,6.59,5.197,4.53,8.474,3.334c2.386-0.87,4.853-1.264,7.381-1.324
			c1.012-0.025,2.018,0.018,3.024,0.068c0.249,0.013,0.317,0.062,0.255,0.324c-0.417,1.748-0.824,3.5-1.215,5.257
			c-0.057,0.252-0.137,0.328-0.4,0.316c-1.977-0.076-3.936,0.055-5.85,0.588c-1.08,0.303-2.129,0.688-3.058,1.331
			c-1.229,0.853-2.1,1.978-2.493,3.435c-0.5,1.85,0.349,3.24,2.218,3.668c1.258,0.289,2.435,0.033,3.564-0.521
			c0.373-0.184,0.734-0.383,1.097-0.589c0.126-0.072,0.194-0.07,0.294,0.045c1.198,1.373,2.401,2.739,3.604,4.106
			c0.083,0.095,0.151,0.152-0.008,0.266c-1.622,1.143-2.443,2.779-2.846,4.667c-0.339,1.599-0.284,3.206-0.034,4.81
			c0.034,0.213-0.039,0.252-0.208,0.279c-1.772,0.297-3.55,0.587-5.319,0.902c-0.316,0.059-0.35-0.082-0.383-0.318
			C7.76,28.181,8.015,25.771,8.736,23.4c0.024-0.085,0.051-0.172,0.072-0.258C8.815,23.12,8.808,23.101,8.808,23.064z"/>
		<path d="M12.115,40.001c-2.015,0.007-3.648-1.622-3.646-3.635c0-1.983,1.627-3.621,3.601-3.625
			c2.032-0.008,3.658,1.59,3.673,3.604C15.756,38.36,14.133,39.995,12.115,40.001z"/>
	</g>
</g>
</svg>
